<svg width="103" height="106" viewBox="0 0 103 106" fill="none" xmlns="http://www.w3.org/2000/svg">
<path d="M4.66274 58.3562L22.0666 58.9054L14.5106 64.2416L12.6104 73.8475L4.66274 58.3562Z" fill="white"/>
<path d="M10.3585 60.0759C10.264 60.1623 10.2707 60.3705 10.3831 60.6698C10.4411 60.8291 10.5217 61.0043 10.6251 61.1955C10.6728 61.2968 10.7319 61.406 10.8024 61.5232L10.9024 61.6951C10.9433 61.7577 10.9728 61.8123 11.0138 61.8749C11.1774 62.1253 11.3638 62.3916 11.5729 62.6739C11.6252 62.7444 11.6775 62.815 11.7412 62.8935C11.7934 62.9641 11.8571 63.0426 11.9208 63.1212C12.0367 63.2703 12.172 63.416 12.3107 63.581C12.5846 63.8917 12.8654 64.2412 13.2042 64.5804C13.3736 64.75 13.535 64.931 13.7158 65.1086C13.8022 65.203 13.8965 65.2862 13.9829 65.3806C14.0693 65.4751 14.1637 65.5582 14.2694 65.6493C15.7883 67.087 17.7782 68.6514 20.1719 70.0749C20.3277 70.1672 20.4642 70.2628 20.6279 70.3437L21.0919 70.6011C21.4115 70.7742 21.7117 70.9507 22.0506 71.1204C22.3781 71.2822 22.717 71.4519 23.0445 71.6137C23.2083 71.6945 23.3834 71.7834 23.5472 71.8643C23.7189 71.9338 23.894 72.0226 24.0658 72.0921C24.2375 72.1616 24.4127 72.2504 24.5844 72.3199C24.7675 72.3974 24.9312 72.4783 25.1223 72.5444C25.4772 72.6914 25.84 72.827 26.2062 72.9819C26.3017 73.015 26.3893 73.0594 26.4848 73.0925L26.7328 73.1984C26.9238 73.2645 27.1035 73.3227 27.2946 73.3888C27.4857 73.4549 27.6768 73.521 27.8565 73.5791C28.0475 73.6452 28.2466 73.6999 28.4263 73.7581C28.6174 73.8242 28.8471 73.8835 29.0803 73.9621C29.2065 73.9997 29.3328 74.0374 29.4704 74.0829C29.608 74.1285 29.7536 74.1628 29.8992 74.197C30.2018 74.2734 30.5271 74.3658 30.8717 74.4547C30.9559 74.4798 31.04 74.5049 31.1435 74.5266C31.2357 74.5403 31.3312 74.5733 31.4234 74.587C31.611 74.6338 31.8067 74.6692 32.0057 74.7239C33.6152 75.089 35.6331 75.452 38.0014 75.6537C38.5975 75.6985 39.205 75.7512 39.8477 75.7778C40.1628 75.8121 40.4824 75.8157 40.8135 75.8273C41.1331 75.8309 41.4722 75.8312 41.8112 75.8314C41.9807 75.8315 42.1502 75.8316 42.3197 75.8317C42.4004 75.8374 42.4892 75.8318 42.5779 75.8262C42.6666 75.8205 42.7474 75.8263 42.8362 75.8206C43.1831 75.8095 43.5301 75.7983 43.8884 75.7952C44.0579 75.7953 44.2434 75.7726 44.4209 75.7614C44.5983 75.7501 44.7758 75.7388 44.9533 75.7276C45.3162 75.6937 45.6825 75.6791 46.0534 75.6339C46.4243 75.5886 46.7986 75.5627 47.1808 75.5254C47.2696 75.5197 47.3663 75.5027 47.463 75.4857C47.5597 75.4687 47.6484 75.4631 47.7451 75.4461C47.9386 75.4121 48.124 75.3894 48.3288 75.3634C48.5222 75.3294 48.719 75.3148 48.9124 75.2808C49.1059 75.2467 49.2993 75.2127 49.4927 75.1787C49.6861 75.1447 49.8795 75.1107 50.0809 75.0653C50.1776 75.0483 50.2743 75.0314 50.379 75.003L50.5337 74.9758L50.6771 74.9406C51.0719 74.8612 51.4747 74.7705 51.8774 74.6797C51.9821 74.6513 52.0788 74.6343 52.1835 74.606C52.2882 74.5776 52.3849 74.5606 52.4895 74.5322C52.6909 74.4868 52.8889 74.4221 53.0983 74.3654C53.3076 74.3086 53.509 74.2633 53.707 74.1985C53.905 74.1338 54.1143 74.0771 54.3123 74.0124C54.5103 73.9476 54.7197 73.8909 54.9256 73.8148C55.0303 73.7864 55.135 73.7581 55.2283 73.7217C55.333 73.6933 55.4342 73.6456 55.5389 73.6173C55.9508 73.4651 56.3661 73.3323 56.778 73.1801C56.984 73.104 57.19 73.0279 57.4039 72.9404C57.6098 72.8643 57.8124 72.7689 58.0183 72.6928C58.8467 72.3578 59.6763 71.9727 60.5104 71.5568C61.3445 71.141 62.1639 70.6978 62.981 70.1853C63.7902 69.6841 64.5926 69.1443 65.3733 68.5384C65.5771 68.3929 65.758 68.2315 65.9504 68.0781C66.1427 67.9246 66.3237 67.7632 66.5241 67.5984C66.705 67.437 66.894 67.2642 67.075 67.1027C67.1694 67.0163 67.256 66.9413 67.3504 66.8549C67.4449 66.7685 67.5394 66.6821 67.6225 66.5878C68.3362 65.884 69.0238 65.145 69.6625 64.3548C69.8173 64.1581 69.9915 63.958 70.1464 63.7613C70.2898 63.5566 70.4526 63.3485 70.5961 63.1439C70.9138 62.7391 71.1859 62.3024 71.4695 61.8737C71.6209 61.6577 71.7416 61.437 71.8817 61.213C72.0138 61.0004 72.1425 60.7684 72.2826 60.5443C72.4033 60.3237 72.532 60.0917 72.6493 59.8518L72.8384 59.5095L72.8828 59.4219L72.9272 59.3344L73.0161 59.1592C73.1334 58.9193 73.2427 58.6907 73.3601 58.4507L73.4489 58.2756C73.4774 58.2108 73.4979 58.1573 73.5264 58.0925L73.6813 57.7263C73.7793 57.4897 73.8853 57.2418 73.9833 57.0052C74.0699 56.7607 74.1645 56.5048 74.2511 56.2603L74.3867 55.8975C74.4243 55.7712 74.4619 55.645 74.4995 55.5187C74.5748 55.2662 74.65 55.0137 74.7253 54.7612C74.7629 54.6349 74.8005 54.5087 74.8268 54.3745L74.9283 53.9878L75.0298 53.601L75.0765 53.4134C75.0857 53.3519 75.1028 53.2791 75.1119 53.2177C75.1644 52.9493 75.2203 52.7002 75.2728 52.4317C75.2991 52.2975 75.3367 52.1713 75.3436 52.0405L75.403 51.6412C75.4362 51.3761 75.4807 51.1191 75.5218 50.8427C75.555 50.5776 75.5882 50.3126 75.6099 50.0396C75.7005 48.9669 75.7182 47.8771 75.6439 46.7735C75.5615 45.6814 75.387 44.5755 75.0658 43.4855C74.7445 42.3955 74.2993 41.3372 73.6867 40.3482C73.6458 40.2856 73.6049 40.223 73.5754 40.1684L73.4526 39.9806C73.3708 39.8554 73.2924 39.7496 73.2106 39.6244C73.0389 39.3854 72.8366 39.1418 72.6149 38.9016C72.3932 38.6615 72.1215 38.4201 71.8065 38.2163C71.4995 38.0011 71.1379 37.8154 70.7284 37.698C70.3496 37.5851 69.931 37.5291 69.4953 37.5459C69.071 37.5707 68.6603 37.6728 68.2904 37.8375C67.9206 38.0022 67.6076 38.2068 67.3288 38.4353C67.0499 38.6637 66.8131 38.9048 66.5991 39.1617C66.179 39.6643 65.8738 40.1965 65.6106 40.7412C65.3668 41.2826 65.1651 41.8365 65.0283 42.4188C64.994 42.5644 64.9598 42.71 64.9256 42.8556L64.9039 42.9591L64.8902 43.0512L64.8548 43.2469L64.7954 43.6462L64.744 44.034C64.7257 44.1569 64.7108 44.2991 64.6925 44.4219L64.6525 44.8178C64.6193 45.0828 64.6055 45.3445 64.5917 45.6061C64.5284 46.664 64.5266 47.7311 64.6135 48.7926C64.7004 49.854 64.8647 50.9018 65.1337 51.9213C66.1469 56.0401 68.8657 59.7094 72.5561 61.5331C74.3916 62.4466 76.4208 62.8177 78.3525 62.7472C79.3241 62.716 80.2639 62.5607 81.1627 62.3429C82.0615 62.125 82.9354 61.8219 83.7411 61.4709C85.3831 60.7734 86.8569 59.8563 88.1589 58.8697C89.4689 57.8717 90.6345 56.7895 91.6432 55.665C91.7695 55.5331 91.8925 55.3819 92.0188 55.25C92.086 55.1784 92.1338 55.1102 92.201 55.0386C92.2568 54.959 92.316 54.8987 92.3718 54.8191C92.4868 54.6793 92.6017 54.5394 92.7167 54.3996C92.8317 54.2597 92.9467 54.1199 93.0503 53.972C93.2689 53.6844 93.4796 53.4081 93.6902 53.1318C93.8894 52.8475 94.0887 52.5632 94.288 52.2789C95.0577 51.1566 95.7194 50.0433 96.2911 48.9857C96.4244 48.723 96.5656 48.4489 96.6989 48.1862C96.8322 47.9235 96.9461 47.6642 97.0714 47.4129C97.1284 47.2832 97.1967 47.1616 97.2536 47.0319C97.3106 46.9023 97.3596 46.784 97.4166 46.6543C97.5225 46.4064 97.6285 46.1585 97.7265 45.9219C98.115 44.9563 98.4478 44.0703 98.6906 43.2401C98.7533 43.0296 98.8194 42.8386 98.8741 42.6395C98.9289 42.4405 98.9756 42.2528 99.0338 42.0731C99.0805 41.8854 99.1307 41.7171 99.1695 41.5408C99.2196 41.3725 99.2584 41.1962 99.2892 41.0312C99.3314 40.8743 99.3623 40.7093 99.3965 40.5637C99.4307 40.4181 99.4649 40.2725 99.4798 40.1303C99.5323 39.8619 99.5768 39.6048 99.6168 39.3785C99.6567 39.1521 99.6808 38.9485 99.7002 38.7756C99.7197 38.6027 99.7346 38.4605 99.7415 38.3297C99.7507 38.0988 99.7496 37.9793 99.7155 37.9554C99.6848 37.9508 99.6245 38.0611 99.5424 38.275C99.5014 38.3819 99.4558 38.5195 99.4056 38.6878C99.3555 38.8561 99.3087 39.0438 99.2267 39.2576C99.164 39.4681 99.0774 39.7126 98.9941 39.9765C98.9485 40.1141 98.903 40.2517 98.8574 40.3893C98.8118 40.527 98.7582 40.6759 98.708 40.8443C98.6545 40.9933 98.6043 41.1616 98.5428 41.322C98.4813 41.4823 98.4231 41.662 98.3536 41.8338C98.2841 42.0055 98.226 42.1852 98.1599 42.3763C98.0824 42.5594 98.0163 42.7505 97.9309 42.9449C97.6198 43.7274 97.2416 44.5815 96.8041 45.4959C96.6948 45.7244 96.5741 45.9451 96.4567 46.185C96.3964 46.2953 96.3394 46.425 96.279 46.5353C96.2107 46.657 96.1503 46.7673 96.082 46.889C95.9453 47.1323 95.828 47.3723 95.6834 47.627C95.5467 47.8704 95.3907 48.1171 95.2461 48.3719C94.6448 49.3748 93.9502 50.4142 93.1668 51.4591C92.9642 51.7241 92.7695 51.9776 92.5588 52.2539C92.3448 52.5109 92.1228 52.7792 91.9088 53.0362C91.4614 53.5535 90.998 54.0936 90.4971 54.5904C89.5102 55.6113 88.3776 56.5981 87.1246 57.4664C85.8749 58.3541 84.4968 59.1347 83.0039 59.7162C81.511 60.2977 79.9033 60.6801 78.2617 60.6995C77.4449 60.7035 76.6225 60.6188 75.8217 60.4306C75.6147 60.3872 75.4236 60.3211 75.2246 60.2664C75.1211 60.2447 75.0255 60.2117 74.93 60.1786C74.8345 60.1456 74.7389 60.1125 74.632 60.0715C74.4296 59.9974 74.2465 59.9199 74.052 59.8345C73.8655 59.7377 73.671 59.6522 73.4845 59.5554C72.0004 58.7695 70.6759 57.5867 69.6575 56.1606C69.1426 55.4436 68.6983 54.6743 68.3359 53.8607C67.9736 53.0471 67.6931 52.1891 67.4866 51.2983C67.0851 49.5245 66.9827 47.6383 67.15 45.7545C67.1786 45.5202 67.1879 45.2892 67.2244 45.0435C67.253 44.8092 67.2816 44.5749 67.3216 44.3485L67.3798 43.9993L67.4381 43.6501L67.4768 43.4738L67.4906 43.3817L67.5077 43.3089C67.5293 43.2054 67.551 43.1019 67.5841 43.0063C67.6935 42.6082 67.8417 42.2033 68.0273 41.8417C68.2016 41.4721 68.4214 41.1344 68.6628 40.8626C68.9041 40.5909 69.1511 40.4079 69.3457 40.3238C69.439 40.2875 69.5243 40.2625 69.6051 40.2683C69.6903 40.4128 69.7824 40.4265 69.878 40.4596C69.9621 40.4846 70.0611 40.537 70.1634 40.6088C70.2658 40.6805 70.3863 40.7989 70.5068 40.9173C70.6193 41.047 70.7466 41.2041 70.866 41.3725L71.0444 41.6502L71.1376 41.7834C71.1751 41.8266 71.1933 41.8733 71.2228 41.9279C72.1046 43.4278 72.5597 45.2221 72.6518 47.0503C72.7035 47.9684 72.6665 48.8921 72.5715 49.826C72.5429 50.0604 72.5143 50.2947 72.4937 50.5177C72.4538 50.744 72.4058 50.9817 72.3773 51.2161L72.319 51.5653C72.3007 51.6881 72.2711 51.803 72.2494 51.9065C72.1901 52.1363 72.1501 52.3626 72.0908 52.5924C72.0817 52.6538 72.0612 52.7073 72.052 52.7687L71.9791 52.9211L71.8788 53.2578L71.7785 53.5944C71.7488 53.7093 71.7192 53.8242 71.6782 53.9311C71.6075 54.1529 71.5368 54.3746 71.4661 54.5964C71.4251 54.7033 71.3955 54.8182 71.3545 54.9251L71.2314 55.2459C71.1493 55.4597 71.0673 55.6735 70.9773 55.8987C70.8952 56.1125 70.7939 56.3297 70.7004 56.5356L70.5853 56.8449C70.5648 56.8984 70.5443 56.9518 70.5124 56.9973L70.4395 57.1497C70.3381 57.3669 70.2447 57.5728 70.1399 57.7706L70.0671 57.923L70.0306 57.9992L69.9941 58.0754L69.829 58.3836C69.7242 58.5815 69.6001 58.7828 69.4953 58.9806C69.3791 59.1705 69.255 59.3718 69.1389 59.5617C69.0227 59.7516 68.8986 59.9529 68.771 60.1348C68.508 60.5101 68.2643 60.8819 67.9865 61.2299C67.8476 61.4038 67.7201 61.5858 67.5812 61.7597C67.4423 61.9337 67.292 62.0997 67.1531 62.2737C66.5862 62.9615 65.9589 63.5902 65.3363 64.1882C65.2612 64.2712 65.1826 64.3349 65.0961 64.4099C65.0096 64.4849 64.9311 64.5486 64.856 64.6316C64.6909 64.7703 64.5372 64.9169 64.3722 65.0556C64.2072 65.1943 64.0307 65.325 63.8657 65.4637C63.7007 65.6023 63.5356 65.741 63.3558 65.8524C62.6581 66.3639 61.9536 66.8367 61.231 67.2628C60.5004 67.7003 59.7595 68.0798 59.0074 68.4513C58.2631 68.8115 57.5041 69.1443 56.7383 69.4385C56.5517 69.5112 56.3651 69.5838 56.1592 69.6599C55.9725 69.7326 55.7746 69.7973 55.5879 69.87C55.2113 69.9961 54.8347 70.1221 54.4581 70.2481C54.3648 70.2844 54.2715 70.3208 54.1748 70.3378C54.0814 70.3741 53.9847 70.3911 53.8914 70.4275C53.7014 70.4808 53.5114 70.5342 53.3327 70.5955C53.1427 70.6489 52.9527 70.7022 52.7741 70.7635C52.592 70.8055 52.402 70.8588 52.22 70.9008C52.0379 70.9428 51.8479 70.9961 51.6659 71.0381C51.5805 71.0631 51.4838 71.0801 51.3905 71.1164C51.3052 71.1414 51.2085 71.1584 51.1118 71.1754C50.7363 71.2514 50.3802 71.324 50.0161 71.4079L49.8807 71.4317L49.7453 71.4555C49.6486 71.4725 49.5713 71.4861 49.4746 71.5031C49.3005 71.5337 49.1071 71.5677 48.933 71.5983C48.7589 71.6289 48.5735 71.6516 48.3994 71.6822C48.214 71.7048 48.0479 71.724 47.8624 71.7467C47.6884 71.7773 47.5109 71.7885 47.3368 71.8192C47.2481 71.8248 47.1627 71.8498 47.074 71.8554C46.9852 71.861 46.8999 71.886 46.8112 71.8916C46.4676 71.9221 46.124 71.9526 45.7805 71.9831C45.4369 72.0136 45.1013 72.0327 44.7657 72.0518C44.6075 72.0597 44.4301 72.071 44.2719 72.0788C44.1138 72.0867 43.9363 72.098 43.7862 72.0945C43.4585 72.1022 43.1389 72.0986 42.8226 72.1143C42.7418 72.1086 42.6645 72.1222 42.5837 72.1165C42.5029 72.1107 42.4256 72.1243 42.3448 72.1186C42.1946 72.115 42.0251 72.115 41.875 72.1114C41.5746 72.1044 41.255 72.1008 40.9547 72.0938C40.6623 72.0754 40.362 72.0684 40.0696 72.05C39.4883 72.0325 38.9275 71.9617 38.3815 71.9181C36.21 71.7017 34.373 71.3467 32.8977 71.0079C32.71 70.9612 32.5337 70.9224 32.3574 70.8836C32.2733 70.8585 32.1811 70.8448 32.097 70.8197C32.0128 70.7946 31.9286 70.7695 31.8558 70.7524C31.5305 70.6601 31.2393 70.5916 30.9561 70.5118C30.8185 70.4662 30.6843 70.44 30.558 70.4024C30.4318 70.3647 30.3169 70.3351 30.21 70.2941C29.9882 70.2234 29.7778 70.1607 29.6095 70.1105C29.4298 70.0524 29.2614 70.0022 29.0817 69.9441C28.902 69.886 28.7416 69.8244 28.5619 69.7663C28.3822 69.7082 28.2219 69.6466 28.0422 69.5885L27.7863 69.4939C27.7021 69.4688 27.6145 69.4244 27.5304 69.3993C27.1903 69.2797 26.8582 69.1486 26.5261 69.0176C26.3657 68.9561 26.194 68.8866 26.0336 68.825C25.8733 68.7635 25.7016 68.694 25.5492 68.6211C25.3888 68.5595 25.2284 68.498 25.076 68.4251C24.9157 68.3636 24.7633 68.2907 24.6109 68.2178C24.2981 68.0833 23.9934 67.9375 23.6806 67.8031C23.3758 67.6573 23.0824 67.5194 22.7776 67.3736L22.3318 67.1629C22.1794 67.09 22.0464 67.0137 21.9053 66.9488C19.6093 65.7972 17.6226 64.5912 15.9954 63.5014C15.8931 63.4297 15.7828 63.3693 15.6918 63.3056C15.5895 63.2338 15.4985 63.1701 15.3962 63.0983C15.2142 62.9708 15.0209 62.8353 14.831 62.7192C14.4592 62.4755 14.126 62.225 13.7963 61.9938C13.6371 61.8823 13.4779 61.7707 13.33 61.6671C13.2504 61.6113 13.1822 61.5634 13.114 61.5156C13.0458 61.4678 12.9775 61.42 12.8979 61.3642C12.625 61.1729 12.3635 60.9896 12.1281 60.8415C12.0713 60.8017 12.0144 60.7618 11.9496 60.7333C11.8927 60.6935 11.8472 60.6616 11.7904 60.6218C11.6881 60.55 11.5777 60.4897 11.4868 60.4259C11.2969 60.3097 11.1217 60.2209 10.9807 60.156C10.668 60.0215 10.453 59.9895 10.3585 60.0759Z" fill="white"/>
<path d="M17.9677 68.6484C18.6727 69.1426 19.405 69.622 20.1726 70.0752C20.2181 70.1071 20.2829 70.1356 20.3284 70.1675C20.4193 70.2312 20.5296 70.2916 20.6286 70.344L21.0926 70.6014C21.1801 70.6458 21.2791 70.6982 21.3587 70.754C21.5793 70.8747 21.8113 71.0034 22.0319 71.1241C22.3594 71.2859 22.6869 71.4476 23.0145 71.6094C23.0793 71.6379 23.1362 71.6777 23.201 71.7062C23.3113 71.7666 23.4296 71.8156 23.5285 71.8679C23.7002 71.9374 23.8754 72.0263 24.0471 72.0958C24.1881 72.1607 24.3292 72.2257 24.4702 72.2906L24.5577 72.335C24.5998 72.3476 24.6226 72.3635 24.6647 72.376C24.8057 72.441 24.9467 72.5059 25.0957 72.5595L25.5347 72.7315C25.7485 72.8136 25.9737 72.9036 26.1875 72.9856C26.2182 72.9902 26.2523 73.0141 26.283 73.0187C26.3365 73.0392 26.4013 73.0677 26.4662 73.0962L26.7334 73.1987C26.9131 73.2569 27.0849 73.3263 27.2759 73.3924L27.2987 73.4084C27.4898 73.4745 27.6808 73.5406 27.8605 73.5987C27.9868 73.6364 28.113 73.674 28.2393 73.7116C28.3041 73.7401 28.3655 73.7492 28.4383 73.7663L29.0923 73.9704C29.1765 73.9955 29.2607 74.0205 29.3562 74.0536L29.4824 74.0912C29.5666 74.1163 29.6701 74.138 29.7543 74.1631C29.8077 74.1836 29.8578 74.1847 29.9113 74.2053C30.0876 74.244 30.2673 74.3022 30.4663 74.3569L30.8951 74.4709C30.9258 74.4755 30.9565 74.4801 30.9907 74.504C31.0441 74.5245 31.1055 74.5337 31.1669 74.5428C31.2591 74.5565 31.3546 74.5895 31.4468 74.6032C31.6344 74.65 31.8301 74.6854 32.0291 74.7401C32.9527 74.9466 33.8309 75.1212 34.7443 75.2697C35.8306 75.4376 36.9328 75.5828 38.0169 75.6813C38.1284 75.6917 38.2398 75.702 38.3593 75.7009C38.8439 75.7354 39.3398 75.7778 39.8518 75.7974L40.1748 75.8204C40.3864 75.833 40.606 75.8343 40.8176 75.847C41.0872 75.8494 41.3568 75.8518 41.6264 75.8543L41.8152 75.851C41.896 75.8567 41.9847 75.8511 42.0655 75.8568C42.1463 75.8626 42.235 75.857 42.3158 75.8627C42.3965 75.8684 42.4853 75.8628 42.574 75.8572C42.6628 75.8515 42.7435 75.8573 42.8323 75.8517L43.1565 75.8246C43.3954 75.8224 43.6422 75.8089 43.8811 75.8068C44.0199 75.8024 44.1587 75.7979 44.3055 75.7821C44.3442 75.7753 44.3749 75.7798 44.4136 75.773C44.483 75.7708 44.5717 75.7652 44.6411 75.7629C44.7492 75.7539 44.8573 75.7449 44.9653 75.7359C45.0541 75.7302 45.1428 75.7246 45.2395 75.7076C45.5057 75.6907 45.7913 75.6704 46.0655 75.6421C46.2816 75.6241 46.5057 75.5946 46.7219 75.5766L47.1929 75.5336C47.2816 75.528 47.3704 75.5224 47.475 75.494C47.5717 75.477 47.6605 75.4714 47.7572 75.4544C47.8346 75.4408 47.9233 75.4351 48.0007 75.4215C48.1167 75.4011 48.2248 75.3921 48.3408 75.3717L48.9245 75.289C49.0599 75.2652 49.2032 75.2301 49.35 75.2142L49.5047 75.187L50.0929 75.0736C50.1897 75.0566 50.2864 75.0396 50.391 75.0112L50.5458 74.984L50.6891 74.9489L50.8905 74.9035C51.2159 74.8263 51.5527 74.7572 51.8974 74.6766C51.9361 74.6698 51.9748 74.663 52.0021 74.6482C52.0601 74.638 52.1375 74.6244 52.2035 74.6029L52.2809 74.5893C52.3582 74.5757 52.4242 74.5541 52.5096 74.5291L52.6563 74.5133C52.8077 74.4667 52.9624 74.4395 53.1137 74.393C53.3231 74.3362 53.5245 74.2909 53.7224 74.2262L53.8078 74.2012C53.9785 74.1512 54.1571 74.0899 54.3391 74.0479L54.5951 73.973C54.7192 73.9412 54.8398 73.8901 54.9638 73.8584L55.2665 73.7653C55.3325 73.7437 55.3985 73.7221 55.4644 73.7005C55.5031 73.6937 55.5304 73.679 55.5771 73.6608C55.7944 73.5927 56.0083 73.5052 56.2257 73.4371C56.4237 73.3724 56.6296 73.2963 56.8162 73.2236L57.4421 72.984C57.5627 72.9329 57.6753 72.8931 57.7959 72.842C57.8892 72.8057 57.9632 72.7727 58.0565 72.7364C58.9122 72.3865 59.7532 72.0094 60.5406 71.6117C61.3793 71.1652 62.2146 70.6993 62.9885 70.2243C63.825 69.7084 64.6239 69.1492 65.3808 68.5774C65.5492 68.4581 65.7143 68.3194 65.8793 68.1807C65.9146 68.1546 65.9306 68.1318 65.9658 68.1057C66.1582 67.9522 66.3312 67.8022 66.5236 67.6487L66.5395 67.626C66.6533 67.5362 66.7831 67.4237 66.8935 67.3145C66.9527 67.2543 67.0233 67.202 67.0824 67.1417L67.2122 67.0292C67.2634 66.9803 67.3146 66.9314 67.3579 66.8939C67.3852 66.8791 67.4091 66.845 67.4364 66.8302C67.4956 66.77 67.5742 66.7063 67.6334 66.6461C68.4894 65.7877 69.1178 65.109 69.6734 64.4131C69.7212 64.3449 69.7804 64.2846 69.8282 64.2164C69.9352 64.0879 70.0502 63.9481 70.1459 63.8116L70.615 63.1908C70.8415 62.8917 71.0533 62.5654 71.2606 62.2698C71.3403 62.156 71.4086 62.0344 71.4803 61.932C71.5839 61.7842 71.6842 61.617 71.7764 61.4612C71.8083 61.4158 71.8368 61.3509 71.8766 61.2941C72.0859 61.4068 72.3065 61.5276 72.5157 61.6403C73.4108 62.0811 74.3775 62.4196 75.3785 62.6125C76.3408 62.8122 77.3213 62.8891 78.3122 62.8544C78.7786 62.8422 79.2576 62.7879 79.7445 62.7223C80.1928 62.6634 80.6536 62.5624 81.1223 62.4501C81.9825 62.2391 82.8484 61.9472 83.7007 61.5781C84.479 61.2418 85.2665 60.8442 86.0324 60.3805C86.7278 59.9692 87.4402 59.485 88.1265 58.9655C89.3853 58.0164 90.5509 56.9342 91.6108 55.7609C91.7098 55.6437 91.8123 55.546 91.9113 55.4289C91.9352 55.3948 91.9705 55.3686 91.9944 55.3345L92.0343 55.2777C92.0855 55.2288 92.1253 55.1719 92.1766 55.123C92.2324 55.0434 92.2916 54.9832 92.3474 54.9036C92.4464 54.7865 92.5534 54.658 92.6411 54.5329L92.6809 54.4761C92.7049 54.4419 92.7288 54.4078 92.7641 54.3817C92.8551 54.2759 92.9348 54.1622 93.0259 54.0565C93.0897 53.9655 93.1728 53.8712 93.2365 53.7802C93.3834 53.5949 93.5189 53.4015 93.6658 53.2162L94.2636 52.3634C94.9775 51.3207 95.6505 50.2153 96.2667 49.0702C96.4 48.8075 96.5412 48.5334 96.6745 48.2707C96.7633 48.0956 96.8442 47.9318 96.9137 47.7601C96.9581 47.6725 97.0026 47.5849 97.047 47.4974L97.2292 47.1164L97.2452 47.0936C97.2942 46.9754 97.3432 46.8571 97.4035 46.7468L97.4969 46.5409C97.5744 46.3578 97.6439 46.1861 97.7248 46.0223C98.1623 44.9385 98.4712 44.0866 98.6889 43.3405C98.7186 43.2256 98.7596 43.1187 98.7892 43.0038L98.8725 42.7399C98.9101 42.6137 98.9443 42.4681 98.9739 42.3532C98.9945 42.2998 99.0036 42.2383 99.0207 42.1655L99.1564 41.6332C99.1861 41.5183 99.2157 41.4034 99.2454 41.2886C99.2545 41.2271 99.2671 41.1851 99.2762 41.1236C99.3059 41.0088 99.3275 40.9053 99.3492 40.8018L99.3834 40.6562C99.4177 40.5106 99.4519 40.365 99.4668 40.2228C99.5193 39.9544 99.5638 39.6973 99.6038 39.4709C99.6471 39.2639 99.6632 39.0717 99.6746 38.9101L99.6872 38.868C99.7066 38.6951 99.7215 38.5529 99.7284 38.4221C99.749 38.1992 99.7366 38.0717 99.7139 38.0558C99.6832 38.0512 99.6228 38.1615 99.5408 38.3754C99.4997 38.4823 99.4541 38.6199 99.404 38.7882C99.3835 38.8417 99.3743 38.9031 99.3458 38.9679C99.3162 39.0828 99.2706 39.2204 99.225 39.3581C99.1623 39.5685 99.0757 39.813 98.9925 40.0769C98.9548 40.2031 98.9092 40.3408 98.8557 40.4897C98.8101 40.6274 98.7565 40.7763 98.7064 40.9447C98.6859 40.9981 98.6654 41.0516 98.6482 41.1244C98.6152 41.2199 98.5742 41.3268 98.5525 41.4303L98.4864 41.6214C98.4454 41.7283 98.4043 41.8352 98.3633 41.9421C98.3348 42.007 98.3177 42.0798 98.2893 42.1446C98.2482 42.2515 98.2186 42.3664 98.1696 42.4847L97.9406 43.0533C97.6739 43.7482 97.3242 44.5375 96.8138 45.6042C96.7045 45.8328 96.5838 46.0535 96.4664 46.2934C96.4061 46.4037 96.3537 46.5027 96.3047 46.6209L96.2808 46.655L96.0837 47.0087C96.0621 47.1122 96.0063 47.1918 95.9618 47.2794C95.8776 47.4238 95.7967 47.5876 95.7045 47.7434C95.5678 47.9867 95.4118 48.2335 95.2671 48.4882C94.61 49.5708 93.9154 50.6101 93.1879 51.5755L92.5799 52.3703C92.449 52.5329 92.318 52.6955 92.1757 52.8501C92.0926 52.9445 92.0016 53.0502 91.9298 53.1525C91.4904 53.6585 91.027 54.1986 90.5182 54.7067C89.48 55.7766 88.3441 56.7439 87.1377 57.5941C86.4912 58.0567 85.8266 58.4726 85.1711 58.8271C84.453 59.2226 83.7361 59.5679 83.017 59.8439C81.3841 60.4799 79.7969 60.8088 78.2748 60.8272C77.4387 60.8346 76.6242 60.7385 75.8348 60.5583C75.7006 60.532 75.563 60.4865 75.4174 60.4522C75.3639 60.4317 75.2911 60.4146 75.2297 60.4055C75.1455 60.3804 75.0614 60.3553 74.9852 60.3189C74.9738 60.3109 74.9545 60.3143 74.9317 60.2984L74.8055 60.2607C74.752 60.2402 74.6986 60.2197 74.6371 60.2106C74.5189 60.1616 74.4006 60.1126 74.2937 60.0716C74.2175 60.0351 74.1333 60.01 74.0571 59.9736L73.9923 59.9451C73.8285 59.8642 73.6648 59.7834 73.4896 59.6945C73.3031 59.5977 73.1132 59.4815 72.9233 59.3654L72.9962 59.213L73.0691 59.0606C73.158 58.8855 73.2434 58.691 73.3323 58.5158L73.4211 58.3407C73.4336 58.2986 73.4576 58.2645 73.4701 58.2224C73.486 58.1997 73.4826 58.1803 73.4986 58.1576L73.6535 57.7914C73.69 57.7152 73.723 57.6197 73.7595 57.5435C73.821 57.3831 73.8939 57.2307 73.9554 57.0704L74.2233 56.3254L74.3668 55.9512C74.3919 55.867 74.417 55.7829 74.4421 55.6987C74.4546 55.6566 74.4672 55.6145 74.4797 55.5725L74.5755 55.2665C74.629 55.1175 74.6633 54.9719 74.7168 54.8229C74.7499 54.7274 74.7715 54.6239 74.7966 54.5397C74.8012 54.509 74.8058 54.4783 74.8183 54.4362L74.9198 54.0495L75.0681 53.4751C75.0806 53.433 75.0931 53.3909 75.0943 53.3409C75.0909 53.3215 75.1068 53.2988 75.1114 53.2681C75.1639 52.9996 75.2198 52.7505 75.2723 52.4821C75.2849 52.44 75.286 52.3899 75.2986 52.3479C75.3237 52.2637 75.3294 52.1829 75.3431 52.0908L75.4025 51.6915C75.422 51.5186 75.4607 51.3423 75.4882 51.1581L75.5213 50.893C75.5271 50.8122 75.5328 50.7315 75.5499 50.6587C75.5773 50.4744 75.5934 50.2822 75.6094 50.0899C75.653 49.5439 75.6852 48.9899 75.6935 48.47C75.7064 47.9194 75.6885 47.3643 75.6434 46.8239C75.6028 46.2528 75.5349 45.6964 75.4431 45.1742C75.3445 44.6133 75.2265 44.0558 75.0653 43.5358C74.7259 42.3991 74.2613 41.3443 73.6862 40.3986C73.6453 40.336 73.6044 40.2734 73.5749 40.2188L73.4521 40.031C73.426 39.9957 73.3999 39.9604 73.3851 39.9331C73.3294 39.8432 73.2657 39.7647 73.2101 39.6748C72.9895 39.3845 72.8099 39.1569 72.6144 38.952C72.37 38.6959 72.113 38.4818 71.8629 38.3065C71.8515 38.2985 71.8288 38.2826 71.8174 38.2746C71.4876 38.0435 71.118 37.8692 70.7393 37.7563C70.3298 37.6389 69.9112 37.5829 69.5062 37.6042C69.1012 37.6256 68.6791 37.7197 68.3013 37.8958C67.9667 38.0344 67.6344 38.2424 67.3283 38.4856C67.0767 38.6993 66.8286 38.9324 66.5986 39.2121C66.2217 39.6771 65.8938 40.1934 65.6102 40.7916C65.3584 41.3443 65.1646 41.8868 65.0278 42.4692C64.989 42.6455 64.9627 42.7797 64.9251 42.906L64.9034 43.0095L64.8543 43.2972L64.7835 43.6885L64.7321 44.0764C64.7309 44.1265 64.7184 44.1686 64.7172 44.2186C64.7115 44.2994 64.6978 44.3915 64.6841 44.4836L64.644 44.8795C64.6166 45.0638 64.6085 45.2447 64.6004 45.4255C64.5947 45.5063 64.5889 45.5871 64.5832 45.6678C64.512 46.7371 64.5215 47.8122 64.605 48.8543C64.6954 49.9351 64.871 50.9909 65.1252 51.983C65.2829 52.6532 65.4986 53.3131 65.761 53.9549C65.51 53.3211 65.3022 52.6498 65.1252 51.983C64.871 50.9909 64.6954 49.9351 64.605 48.8543C64.5215 47.8122 64.512 46.7371 64.5832 45.6678C64.5889 45.5871 64.5947 45.5063 64.6004 45.4255C64.6085 45.2447 64.6245 45.0524 64.644 44.8795L64.6841 44.4836C64.6898 44.4029 64.7035 44.3107 64.7172 44.2186C64.7184 44.1686 64.7309 44.1265 64.7321 44.0764L64.7835 43.6885L64.9034 43.0095L64.9251 42.906C64.9434 42.7831 64.9776 42.6375 65.0278 42.4692C65.176 41.8948 65.3584 41.3443 65.6102 40.7916C65.8938 40.1934 66.199 39.6612 66.5872 39.2041C66.8172 38.9244 67.054 38.6834 67.3169 38.4776C67.6231 38.2344 67.9474 38.0378 68.2785 37.8799C68.6677 37.7118 69.0785 37.6096 69.4835 37.5883C69.8885 37.5669 70.2957 37.615 70.7165 37.7404C71.0953 37.8532 71.4649 38.0275 71.7946 38.2587C72.0675 38.45 72.3472 38.6799 72.6144 38.952C72.8099 39.1569 73.0009 39.3925 73.2101 39.6748C73.2657 39.7647 73.3294 39.8432 73.3851 39.9331C73.3999 39.9604 73.426 39.9957 73.4521 40.031L73.5749 40.2188C73.6158 40.2814 73.6453 40.336 73.6749 40.3906C74.2692 41.3329 74.7373 42.4071 75.0653 43.5358C75.2265 44.0558 75.3445 44.6133 75.4431 45.1742C75.5349 45.6964 75.6028 46.2528 75.6434 46.8239C75.6772 47.3563 75.695 47.9115 75.6935 48.47C75.6852 48.9899 75.653 49.5439 75.6094 50.0899C75.5934 50.2822 75.566 50.4664 75.5499 50.6587C75.5328 50.7315 75.5271 50.8122 75.5213 50.893L75.4882 51.1581C75.4687 51.331 75.4186 51.4993 75.3991 51.6722L75.3397 52.0715C75.326 52.1636 75.3089 52.2364 75.2952 52.3285C75.2826 52.3706 75.2815 52.4207 75.2689 52.4628C75.2244 52.7198 75.1605 52.9803 75.108 53.2487C75.1114 53.2681 75.0955 53.2908 75.0909 53.3215C75.0784 53.3636 75.0772 53.4137 75.0646 53.4557L75.0179 53.6434L74.9164 54.0301L74.8183 54.4362C74.8058 54.4783 74.8012 54.509 74.7966 54.5397C74.7636 54.6353 74.7499 54.7274 74.7168 54.8229C74.6633 54.9719 74.629 55.1175 74.5755 55.2665L74.4797 55.5725C74.4672 55.6145 74.4546 55.6566 74.4421 55.6987C74.417 55.7829 74.3919 55.867 74.3668 55.9512L74.2312 56.314L73.9634 57.059C73.9019 57.2193 73.8324 57.3911 73.7595 57.5435C73.723 57.6197 73.69 57.7152 73.6535 57.7914L73.4986 58.1576C73.4826 58.1803 73.486 58.1997 73.4701 58.2224C73.4576 58.2645 73.4416 58.2872 73.4291 58.3293L73.3402 58.5045C73.2514 58.6796 73.158 58.8855 73.0691 59.0606L72.9962 59.213L72.9233 59.3654C72.0079 58.8085 71.1586 58.0605 70.4117 57.2148L70.4402 57.15L70.5131 56.9976C70.537 56.9635 70.5416 56.9328 70.5541 56.8907C70.5621 56.8793 70.5667 56.8486 70.5746 56.8373L70.7091 56.5245C70.7455 56.4483 70.782 56.3721 70.8071 56.2879C70.864 56.1583 70.929 56.0173 70.9859 55.8876L70.9905 55.8569C71.0725 55.6431 71.1466 55.4406 71.2207 55.2382L71.3438 54.9175C71.3722 54.8526 71.3893 54.7798 71.4065 54.7071C71.419 54.665 71.4315 54.6229 71.4441 54.5808L71.5022 54.4011C71.5524 54.2328 71.6139 54.0724 71.6561 53.9154C71.6812 53.8313 71.7063 53.7471 71.7313 53.6629C71.7359 53.6322 71.7519 53.6095 71.7564 53.5788L71.8567 53.2421L71.9959 52.7291C72.0084 52.687 72.013 52.6563 72.0255 52.6143C72.0221 52.5949 72.038 52.5722 72.0346 52.5528L72.1932 51.8669C72.2058 51.8249 72.2183 51.7828 72.2229 51.7521C72.24 51.6793 72.2571 51.6065 72.2742 51.5337L72.3324 51.1845C72.3724 50.9581 72.4203 50.7204 72.4489 50.4861C72.4547 50.4053 72.4718 50.3325 72.4855 50.2404C72.5004 50.0982 72.5232 49.9446 72.5461 49.7911C72.6377 48.8378 72.6826 47.9027 72.6263 47.0154C72.5791 46.0666 72.4421 45.1734 72.2151 44.336C71.9699 43.4519 71.6349 42.6236 71.2087 41.9009C71.1905 41.8543 71.153 41.811 71.1235 41.7564L71.0303 41.6232L70.8519 41.3455C70.7178 41.1498 70.6018 41.0007 70.4927 40.8903C70.3688 40.7525 70.2517 40.6535 70.1493 40.5818C70.1379 40.5738 70.1266 40.5658 70.1266 40.5658C70.047 40.51 69.9594 40.4656 69.8639 40.4325C69.7683 40.3995 69.6762 40.3858 69.5875 40.3914C69.4987 40.397 69.4214 40.4106 69.3281 40.447C69.1221 40.5231 68.8671 40.7174 68.6451 40.9858C68.4118 41.2461 68.192 41.5839 68.0097 41.9648C67.8275 42.3458 67.668 42.7428 67.5665 43.1295C67.5414 43.2136 67.5117 43.3285 67.4901 43.432L67.4729 43.5048L67.4284 43.7619L67.3849 44.1384L67.3267 44.4876C67.2947 44.7026 67.2548 44.929 67.2421 45.1405L67.2409 45.1906C67.2181 45.3442 67.2066 45.5057 67.1951 45.6672C67.1894 45.748 67.1837 45.8288 67.1745 45.8902C67.0909 46.8321 67.0686 47.7831 67.1283 48.6898C67.1835 49.6272 67.316 50.551 67.5191 51.4226C67.721 52.3442 68.0128 53.2101 68.3684 53.985C68.7307 54.7986 69.1751 55.5679 69.6899 56.2849C69.9252 56.6025 70.1798 56.9166 70.4311 57.2114L70.1406 57.7709L70.0313 57.9995L69.8183 58.3759L69.4846 58.973C69.4163 59.0947 69.3445 59.197 69.2762 59.3187C69.2204 59.3983 69.1839 59.4745 69.1282 59.5541C69.0883 59.6109 69.0598 59.6758 69.02 59.7326C68.9437 59.8657 68.848 60.0021 68.7603 60.1272C68.6806 60.2409 68.6089 60.3432 68.5372 60.4456C68.3538 60.7071 68.1819 60.9766 67.9758 61.2222L67.5705 61.7521C67.4794 61.8578 67.3883 61.9635 67.2973 62.0693C67.2381 62.1295 67.1903 62.1978 67.1311 62.258C66.5129 62.9948 65.8344 63.6724 65.3142 64.1726C65.255 64.2328 65.2038 64.2817 65.1412 64.3226C65.1139 64.3374 65.098 64.3602 65.0627 64.3863C64.9841 64.4499 64.917 64.5216 64.8384 64.5852L64.8225 64.608C64.7633 64.6682 64.7007 64.7091 64.6415 64.7694C64.5391 64.8672 64.4332 64.9456 64.3308 65.0434C64.1657 65.182 63.9893 65.3128 63.8243 65.4514C63.789 65.4776 63.7617 65.4923 63.7378 65.5265C63.608 65.639 63.4669 65.7436 63.3258 65.8481C62.6554 66.3448 61.9316 66.821 61.201 67.2585C60.4976 67.6813 59.7488 68.0721 58.9773 68.4471C58.2604 68.7924 57.5014 69.1253 56.7083 69.4342L56.1291 69.6557C55.9425 69.7284 55.7639 69.7897 55.5772 69.8624L55.5579 69.8657C55.286 69.9634 55.022 70.0497 54.758 70.136L54.428 70.2438C54.3893 70.2506 54.362 70.2654 54.3347 70.2802C54.2687 70.3017 54.2221 70.3199 54.1561 70.3415L54.0514 70.3699C53.9934 70.3801 53.9274 70.4016 53.8807 70.4198L53.322 70.5878C53.2094 70.6276 53.0854 70.6594 52.9727 70.6991L52.7634 70.7558C52.62 70.791 52.4767 70.8262 52.3333 70.8614L52.1899 70.8965C52.0079 70.9385 51.8179 70.9919 51.6358 71.0338C51.5585 71.0474 51.4925 71.069 51.4151 71.0826L51.3571 71.0928C51.2991 71.103 51.241 71.1132 51.175 71.1348C51.1364 71.1416 51.109 71.1564 51.0783 71.1518C50.7029 71.2278 50.3388 71.3117 49.9827 71.3843L49.8473 71.4081L49.7119 71.4319C49.6152 71.4489 49.5378 71.4625 49.4411 71.4795C49.3057 71.5033 49.1703 71.5271 49.0236 71.5429L48.7141 71.5974C48.5981 71.6178 48.482 71.6382 48.3546 71.6506L48.1305 71.68C48.0224 71.6891 47.9257 71.7061 47.8176 71.7151C47.6435 71.7457 47.4661 71.757 47.292 71.7876L47.0292 71.8238C46.9325 71.8408 46.8437 71.8464 46.7743 71.8487C46.5775 71.8633 46.3727 71.8894 46.1759 71.904L45.7436 71.9402C45.4888 71.965 45.2419 71.9785 44.995 71.992C44.9063 71.9976 44.8176 72.0033 44.7288 72.0089C44.6094 72.01 44.5013 72.019 44.3739 72.0314L44.2351 72.0359C44.1964 72.0427 44.1657 72.0381 44.127 72.0449C43.9996 72.0574 43.8688 72.0504 43.7413 72.0629L43.6526 72.0685C43.3557 72.0808 43.0667 72.0818 42.7778 72.0827C42.7277 72.0816 42.689 72.0884 42.639 72.0872L42.5389 72.0849C42.4501 72.0905 42.3808 72.0927 42.3 72.087C42.1498 72.0835 41.9803 72.0834 41.8302 72.0799L41.7801 72.0787C41.4798 72.0717 41.1908 72.0726 40.9098 72.0622L40.5868 72.0392C40.3945 72.0232 40.2137 72.0151 40.0214 71.9991C39.5596 71.9806 39.1136 71.9393 38.6871 71.8947C38.5756 71.8844 38.4527 71.8661 38.3333 71.8672C36.4962 71.6817 34.7001 71.3893 32.8495 70.957L32.3092 70.8326C32.225 70.8076 32.1329 70.7939 32.0601 70.7767C31.9987 70.7676 31.9566 70.7551 31.9031 70.7346C31.8724 70.73 31.8497 70.7141 31.819 70.7095C31.4937 70.6171 31.2025 70.5487 30.9193 70.4689C30.8658 70.4483 30.8158 70.4472 30.7737 70.4347C30.6895 70.4096 30.6054 70.3845 30.5326 70.3674C30.4484 70.3423 30.3756 70.3252 30.3108 70.2967L30.1845 70.2591L29.9855 70.2043C29.8365 70.1508 29.7023 70.1245 29.584 70.0755C29.5112 70.0584 29.4577 70.0379 29.3849 70.0208C29.2701 69.9912 29.1632 69.9501 29.0483 69.9205C28.9641 69.8954 28.8799 69.8703 28.7924 69.8259C28.7082 69.8008 28.6127 69.7678 28.5285 69.7427C28.3602 69.6925 28.1884 69.623 28.0201 69.5729L27.7642 69.4783C27.7107 69.4578 27.6573 69.4373 27.6038 69.4167C27.5731 69.4122 27.539 69.3883 27.5083 69.3837L27.3707 69.3381C27.0841 69.2389 26.7941 69.1204 26.5074 69.0213C26.3812 68.9837 26.2515 68.9267 26.1333 68.8777C26.0912 68.8652 26.0571 68.8413 26.015 68.8287C25.8546 68.7672 25.6829 68.6977 25.5225 68.6362C25.427 68.6031 25.3394 68.5587 25.2439 68.5256L25.0301 68.4436C24.9231 68.4026 24.8356 68.3581 24.7287 68.3171C24.6752 68.2966 24.6104 68.2681 24.5569 68.2476L24.1259 68.0642C23.9542 67.9947 23.7904 67.9138 23.6187 67.8443C23.4435 67.7555 23.2604 67.678 23.0967 67.5971C22.967 67.5401 22.8453 67.4718 22.7157 67.4148L22.2699 67.2041C22.1823 67.1597 22.0834 67.1073 21.9958 67.0629C21.9503 67.031 21.8969 67.0105 21.8321 66.982C20.7699 66.4409 19.6895 65.8533 18.6331 65.2315C17.7211 64.6939 16.8136 64.1257 15.9221 63.5347C15.888 63.5108 15.8425 63.4789 15.8084 63.455C15.7515 63.4151 15.6947 63.3753 15.6378 63.3354C15.5469 63.2717 15.4332 63.192 15.3422 63.1282C15.1716 63.0086 15.0124 62.897 14.8339 62.7888L14.7771 62.749C14.5417 62.601 14.3336 62.4381 14.1289 62.2947C13.9925 62.199 13.8787 62.1193 13.7537 62.0317C13.5945 61.9201 13.4353 61.8085 13.2875 61.7049C13.2192 61.657 13.151 61.6092 13.0828 61.5614L13.06 61.5455C12.9918 61.4976 12.9236 61.4498 12.844 61.394C12.5711 61.2027 12.3096 61.0194 12.0742 60.8714L11.8956 60.7632L11.7364 60.6516C11.6341 60.5799 11.5238 60.5195 11.4328 60.4557C11.2429 60.3396 11.0678 60.2507 10.9268 60.1858C10.6333 60.048 10.4297 60.0239 10.3273 60.1217C10.2328 60.2081 10.2395 60.4163 10.3519 60.7156C10.4098 60.8749 10.4905 61.0501 10.5939 61.2413C10.6416 61.3426 10.7007 61.4518 10.7712 61.569L10.8712 61.7409C10.9007 61.7955 10.9496 61.8467 10.9791 61.9013L10.9905 61.9093C11.1542 62.1597 11.3485 62.4146 11.5497 62.7083L11.5906 62.7709C11.6395 62.8221 11.669 62.8767 11.7099 62.9393C11.7622 63.0099 11.8259 63.0884 11.8895 63.1669C12.0168 63.324 12.1521 63.4697 12.2794 63.6268C12.3283 63.678 12.3806 63.7486 12.4295 63.7998C12.666 64.0673 12.8944 64.3461 13.1616 64.6182C13.331 64.7878 13.4924 64.9688 13.6732 65.1464L13.7675 65.2295C13.8278 65.2887 13.8881 65.3479 13.9483 65.4071C14.0086 65.4663 14.0688 65.5254 14.1291 65.5846C14.1632 65.6086 14.1893 65.6438 14.2234 65.6678C15.0147 66.4259 15.9027 67.167 16.8374 67.89C17.2286 68.1303 17.5924 68.3854 17.9677 68.6484ZM71.8766 61.2941C71.8368 61.3509 71.8083 61.4158 71.7764 61.4612C71.6842 61.617 71.5919 61.7728 71.4803 61.932C71.4006 62.0457 71.3209 62.1594 71.2606 62.2698C71.0567 62.5847 70.8529 62.8997 70.615 63.1908L70.1652 63.8082C70.0582 63.9367 69.9432 64.0766 69.8475 64.213C69.7997 64.2812 69.7405 64.3415 69.6927 64.4097C69.1371 65.1056 68.5087 65.7843 67.6527 66.6427C67.5855 66.7143 67.5263 66.7746 67.4558 66.8268C67.4285 66.8416 67.4045 66.8757 67.3772 66.8905C67.326 66.9394 67.2828 66.9769 67.2315 67.0258L67.1018 67.1383C67.0426 67.1986 66.972 67.2508 66.9128 67.3111C66.8024 67.4202 66.6613 67.5248 66.5395 67.626L66.5236 67.6487C66.3312 67.8022 66.1696 67.9602 65.9772 68.1137C65.9419 68.1398 65.9146 68.1546 65.8793 68.1807C65.7223 68.308 65.5686 68.4547 65.4001 68.574C64.6353 69.1571 63.8364 69.7163 63.0079 70.2209C62.226 70.7073 61.3987 71.1618 60.5372 71.5924C59.7498 71.9901 58.9202 72.3752 58.0565 72.7364C57.9632 72.7727 57.8892 72.8057 57.7959 72.842C57.6753 72.8931 57.5547 72.9442 57.4421 72.984L56.8049 73.2157C56.6069 73.2804 56.4123 73.3644 56.2257 73.4371C56.0083 73.5052 55.7944 73.5927 55.5771 73.6608C55.5304 73.679 55.5031 73.6937 55.4644 73.7005C55.3985 73.7221 55.3211 73.7357 55.2551 73.7573L54.9638 73.8584C54.8398 73.8901 54.7271 73.9299 54.5951 73.973L54.3278 74.04C54.1491 74.1013 53.9898 74.1592 53.8078 74.2012L53.7224 74.2262C53.5131 74.2829 53.3117 74.3283 53.1137 74.393C52.9624 74.4395 52.8077 74.4667 52.6563 74.5133L52.4936 74.5519C52.4163 74.5655 52.3503 74.587 52.2649 74.612L52.1876 74.6256C52.1216 74.6472 52.0635 74.6574 51.9862 74.671C51.9475 74.6778 51.9088 74.6846 51.8815 74.6994C51.5447 74.7685 51.2273 74.8343 50.8905 74.9035L50.6891 74.9489L50.5378 74.9954L50.391 75.0112C50.2943 75.0282 50.1897 75.0566 50.0929 75.0736L49.5047 75.187L49.35 75.2142C49.2146 75.238 49.0599 75.2652 48.9245 75.289L48.3408 75.3717C48.2248 75.3921 48.1167 75.4011 48.0007 75.4215C47.9233 75.4351 47.8346 75.4408 47.7572 75.4544C47.6605 75.4714 47.5717 75.477 47.475 75.494C47.367 75.503 47.2703 75.52 47.1929 75.5336L46.7219 75.5766C46.5057 75.5946 46.2816 75.6241 46.0655 75.6421C45.7913 75.6704 45.5057 75.6907 45.2395 75.7076C45.1508 75.7132 45.062 75.7188 44.9733 75.7245C44.8652 75.7335 44.7651 75.7312 44.657 75.7402C44.5876 75.7424 44.4989 75.7481 44.4295 75.7503C44.3908 75.7571 44.3601 75.7525 44.3214 75.7593C44.1826 75.7638 44.0359 75.7796 43.8971 75.7841C43.6582 75.7862 43.4113 75.7997 43.1724 75.8018L42.8448 75.8096C42.7561 75.8152 42.6753 75.8095 42.5866 75.8151C42.4978 75.8207 42.4091 75.8264 42.3283 75.8206C42.2475 75.8149 42.1588 75.8205 42.0701 75.8261C41.9893 75.8204 41.9006 75.826 41.8198 75.8203L41.631 75.8236C41.3613 75.8211 41.0917 75.8187 40.8221 75.8162C40.6105 75.8036 40.391 75.8023 40.1794 75.7897L39.8484 75.7781C39.3365 75.7584 38.8405 75.716 38.3559 75.6816C38.2444 75.6712 38.1329 75.661 38.0214 75.6506C36.9294 75.5635 35.8272 75.4183 34.7488 75.239C33.8468 75.0985 32.9573 74.9159 32.0337 74.7094C31.8267 74.6661 31.639 74.6193 31.4513 74.5725C31.3592 74.5588 31.2637 74.5258 31.1715 74.5121C31.1101 74.5029 31.0566 74.4824 30.9952 74.4733C30.9645 74.4687 30.9338 74.4641 30.8997 74.4402L30.4709 74.3262C30.2718 74.2715 30.0955 74.2327 29.9158 74.1745C29.8624 74.154 29.8123 74.1529 29.7589 74.1323C29.6554 74.1107 29.5712 74.0856 29.487 74.0605L29.3608 74.0229C29.2652 73.9898 29.1811 73.9648 29.0969 73.9397L28.4429 73.7356C28.3781 73.7071 28.3053 73.69 28.2439 73.6809C28.1176 73.6433 27.9914 73.6056 27.8731 73.5566C27.682 73.4905 27.4909 73.4245 27.3112 73.3663L27.2885 73.3504C27.1088 73.2922 26.937 73.2227 26.746 73.1566L26.4594 73.0575C26.4059 73.037 26.3411 73.0085 26.2763 72.98C26.2535 72.9641 26.2114 72.9515 26.1807 72.947C25.9669 72.8649 25.7417 72.7749 25.5279 72.6928L25.0889 72.5208C24.9399 72.4672 24.7989 72.4023 24.6578 72.3374C24.6237 72.3135 24.593 72.3089 24.5509 72.2963L24.4634 72.2519C24.3223 72.187 24.1813 72.1221 24.0323 72.0685C23.8606 71.999 23.6855 71.9101 23.5137 71.8406C23.3955 71.7916 23.2851 71.7313 23.1862 71.6789C23.1328 71.6584 23.0759 71.6185 23.0111 71.59C22.6835 71.4283 22.3447 71.2586 22.0171 71.0968C21.7851 70.9681 21.5645 70.8474 21.3439 70.7267C21.2563 70.6823 21.1574 70.6299 21.0778 70.5741L20.6138 70.3167C20.5103 70.295 20.408 70.2233 20.309 70.1709C20.2635 70.139 20.2067 70.0991 20.1532 70.0786C19.0058 69.393 17.9097 68.6586 16.8727 67.8639C15.9301 67.1523 15.05 66.3998 14.2508 65.653C14.2166 65.6291 14.1905 65.5938 14.1564 65.5699C14.0961 65.5107 14.0359 65.4515 13.9756 65.3923C13.9154 65.3331 13.8551 65.2739 13.7949 65.2147L13.7005 65.1316C13.5311 64.962 13.3697 64.781 13.1889 64.6034C12.9217 64.3314 12.6739 64.0559 12.4568 63.785C12.3966 63.7258 12.3556 63.6632 12.3068 63.612C12.1794 63.455 12.0442 63.3092 11.9169 63.1522C11.8532 63.0736 11.7895 62.9951 11.7373 62.9245C11.6963 62.8619 11.6588 62.8187 11.6179 62.7561L11.577 62.6935C11.3679 62.4112 11.1701 62.137 11.0178 61.8946L11.0144 61.8752C10.9735 61.8126 10.936 61.7694 10.9064 61.7147L10.8064 61.5429C10.736 61.4257 10.6769 61.3164 10.6292 61.2151C10.5224 61.0046 10.4417 60.8294 10.3872 60.6894C10.2748 60.3902 10.2681 60.182 10.3626 60.0956C10.457 60.0092 10.6606 60.0332 10.962 60.1597C11.1031 60.2246 11.2782 60.3134 11.4681 60.4296C11.567 60.482 11.658 60.5458 11.7717 60.6255L11.9309 60.737L12.0981 60.8373C12.28 60.9648 12.4926 61.0969 12.7087 61.2483C12.7656 61.2882 12.8224 61.328 12.8793 61.3679C12.9475 61.4157 13.0157 61.4635 13.0953 61.5193L13.1181 61.5353C13.1863 61.5831 13.2545 61.6309 13.3227 61.6787C13.4706 61.7824 13.6297 61.8939 13.7889 62.0055C13.914 62.0932 14.0391 62.1809 14.1642 62.2686C14.3689 62.412 14.5849 62.5635 14.8123 62.7229L14.8692 62.7627C15.0397 62.8823 15.1989 62.9939 15.3775 63.102C15.4685 63.1658 15.5708 63.2375 15.6618 63.3013C15.7186 63.3412 15.7868 63.389 15.8437 63.4288C15.8778 63.4527 15.9233 63.4846 15.9574 63.5085C16.8489 64.0995 17.7563 64.6678 18.6684 65.2053C19.7248 65.8271 20.8051 66.4148 21.8673 66.9559C21.9208 66.9764 21.9663 67.0082 22.0311 67.0367C22.1187 67.0811 22.2176 67.1335 22.3052 67.178L22.751 67.3887C22.8806 67.4457 23.0023 67.514 23.132 67.571C23.2957 67.6518 23.4788 67.7293 23.654 67.8182C23.8257 67.8877 23.9894 67.9685 24.1612 68.038L24.5922 68.2215C24.6457 68.242 24.7105 68.2705 24.7639 68.291C24.8629 68.3434 24.9584 68.3764 25.0653 68.4174L25.2792 68.4995C25.3747 68.5325 25.4623 68.577 25.5578 68.61C25.7182 68.6715 25.8899 68.741 26.0423 68.8139C26.0844 68.8265 26.1185 68.8504 26.1606 68.8629C26.2788 68.9119 26.4085 68.9689 26.5347 69.0065C26.8214 69.1057 27.1114 69.2242 27.398 69.3233L27.5356 69.3689C27.5663 69.3735 27.6004 69.3974 27.6312 69.402C27.6846 69.4225 27.738 69.443 27.7915 69.4635L28.0554 69.5467C28.2237 69.5969 28.3841 69.6584 28.5524 69.7086C28.6366 69.7337 28.7435 69.7747 28.8277 69.7998C28.9118 69.8248 28.988 69.8613 29.0835 69.8944C29.1905 69.9354 29.3053 69.965 29.4202 69.9947C29.4851 70.0231 29.5465 70.0323 29.6113 70.0608C29.7375 70.0984 29.8752 70.144 30.0208 70.1782L30.2118 70.2443L30.3381 70.2819C30.4109 70.299 30.4871 70.3355 30.5599 70.3526C30.644 70.3777 30.7168 70.3948 30.801 70.4199C30.8431 70.4324 30.8965 70.4529 30.9466 70.4541C31.2184 70.5259 31.513 70.6137 31.8463 70.6947C31.877 70.6993 31.8997 70.7152 31.9304 70.7198C31.9839 70.7403 32.0339 70.7415 32.0874 70.762C32.1716 70.7871 32.2524 70.7928 32.3365 70.8179L32.8722 70.9729C34.7342 71.4132 36.5303 71.7056 38.356 71.8831C38.4675 71.8934 38.5904 71.9117 38.7019 71.922C39.1364 71.9553 39.5743 72.0079 40.0362 72.0264C40.2171 72.0345 40.4093 72.0505 40.6016 72.0666L40.9246 72.0895C41.2056 72.0999 41.4945 72.099 41.7949 72.106L41.8449 72.1072C41.9951 72.1107 42.1646 72.1108 42.3147 72.1143C42.3841 72.1121 42.4649 72.1178 42.5536 72.1122L42.6538 72.1145C42.7038 72.1157 42.7425 72.1089 42.7925 72.1101C43.0815 72.1091 43.3784 72.0968 43.6674 72.0958L43.7561 72.0902C43.8869 72.0971 44.0144 72.0847 44.1418 72.0722C44.1725 72.0768 44.2112 72.07 44.2498 72.0632L44.3886 72.0587C44.5081 72.0577 44.6162 72.0486 44.7436 72.0362C44.8323 72.0306 44.9211 72.0249 45.0098 72.0193C45.2567 72.0058 45.5035 71.9923 45.7584 71.9675L46.1907 71.9313C46.3875 71.9167 46.5843 71.902 46.7891 71.876C46.8585 71.8737 46.9472 71.8681 47.0519 71.8397L47.3147 71.8035C47.4808 71.7843 47.6663 71.7616 47.8404 71.731C47.9371 71.714 48.0451 71.705 48.1532 71.696L48.358 71.6699C48.474 71.6495 48.5901 71.6291 48.7175 71.6167L49.019 71.5737C49.1544 71.5499 49.2898 71.5261 49.4365 71.5102C49.5332 71.4932 49.6106 71.4796 49.7073 71.4626L49.8507 71.4274L49.9861 71.4036C50.3422 71.3311 50.7177 71.2551 51.0817 71.1711C51.1204 71.1643 51.1477 71.1496 51.1784 71.1541C51.2365 71.1439 51.2945 71.1337 51.3605 71.1122L51.4185 71.1019C51.4959 71.0883 51.5619 71.0668 51.6392 71.0532C51.8213 71.0112 52.0113 70.9579 52.1933 70.9159L52.3367 70.8807C52.4801 70.8455 52.6234 70.8104 52.7668 70.7752L52.9761 70.7184C53.0888 70.6787 53.2128 70.6469 53.3255 70.6072L53.8841 70.4392C53.9421 70.429 54.0081 70.4074 54.0548 70.3892L54.1561 70.3415C54.2221 70.3199 54.2915 70.3177 54.3461 70.2881C54.3734 70.2734 54.4121 70.2666 54.4508 70.2598L54.7807 70.1519C55.0447 70.0656 55.3167 69.968 55.5806 69.8817L55.6 69.8783C55.7786 69.817 55.9652 69.7443 56.1519 69.6716L56.7231 69.4615C57.5048 69.1446 58.2752 68.8197 58.9921 68.4744C59.7636 68.0994 60.5124 67.7086 61.2157 67.2859C61.9463 66.8484 62.6702 66.3721 63.3405 65.8754C63.4817 65.7709 63.6228 65.6663 63.7526 65.5538C63.7878 65.5276 63.8151 65.5129 63.8391 65.4787C64.0041 65.3401 64.1805 65.2094 64.3455 65.0707C64.4594 64.9809 64.5538 64.8945 64.6563 64.7967C64.7155 64.7364 64.7781 64.6955 64.8373 64.6353L64.8532 64.6125C64.9318 64.5489 64.9989 64.4773 65.0774 64.4136C65.0934 64.3909 65.1207 64.3761 65.148 64.3613C65.1992 64.3124 65.2698 64.2601 65.329 64.1999C65.8492 63.6997 66.5276 63.0221 67.1458 62.2853C67.205 62.2251 67.2529 62.1568 67.312 62.0966C67.4031 61.9908 67.4942 61.8851 67.5853 61.7794L67.9906 61.2495C68.1853 60.996 68.3686 60.7344 68.5519 60.4729C68.6237 60.3705 68.7034 60.2568 68.7751 60.1545C68.8628 60.0294 68.9584 59.893 69.0347 59.7599C69.0746 59.7031 69.1031 59.6382 69.1429 59.5814C69.1987 59.5018 69.2352 59.4256 69.291 59.346C69.5172 59.5555 69.7435 59.7649 69.9777 59.963C70.5519 60.4503 71.2 60.9046 71.8766 61.2941ZM71.8766 61.2941C71.5343 61.105 71.2046 60.8739 70.8862 60.6507C70.3176 60.2522 69.781 59.8082 69.2762 59.3187C69.3445 59.197 69.4163 59.0947 69.4846 58.973L69.8183 58.3759L70.0313 57.9995L70.1406 57.7709L70.4117 57.2148C71.0233 57.9148 71.6987 58.5239 72.415 59.026C72.5856 59.1456 72.7562 59.2652 72.9347 59.3733L72.8823 59.4723L72.8379 59.5598L72.6488 59.9021C72.552 60.0886 72.4552 60.2752 72.355 60.4423L72.2787 60.5754L71.9005 61.26C71.8926 61.2713 71.8766 61.2941 71.8766 61.2941ZM99.7139 38.0558C99.7366 38.0717 99.7604 38.2071 99.7398 38.4301C99.7295 38.5416 99.718 38.7031 99.7065 38.8646L99.694 38.9067C99.6825 39.0683 99.6551 39.2525 99.6231 39.4675C99.5831 39.6939 99.5466 39.9396 99.4861 40.2194C99.4633 40.3729 99.429 40.5185 99.4028 40.6528L99.3686 40.7984C99.3469 40.9019 99.3172 41.0167 99.2955 41.1202C99.275 41.1737 99.2739 41.2238 99.2647 41.2852C99.243 41.3887 99.2134 41.5036 99.1837 41.6185L99.0207 42.1655C99.0002 42.219 98.9911 42.2804 98.9739 42.3532C98.9443 42.4681 98.9101 42.6137 98.8725 42.7399L98.7892 43.0038C98.7596 43.1187 98.7186 43.2256 98.6889 43.3405C98.4598 44.0786 98.151 44.9305 97.7248 46.0223C97.6553 46.1941 97.5665 46.3692 97.4969 46.5409L97.4035 46.7468C97.3545 46.865 97.3055 46.9833 97.2452 47.0936L97.2292 47.1164L97.047 47.4974C97.0026 47.5849 96.9581 47.6725 96.9137 47.7601C96.8328 47.9238 96.7554 48.1069 96.6745 48.2707C96.5412 48.5334 96.408 48.7961 96.2667 49.0702C95.6505 50.2153 94.9775 51.3207 94.2636 52.3634L93.6658 53.2162C93.5303 53.4095 93.3834 53.5949 93.2365 53.7802C93.1728 53.8712 93.0897 53.9655 93.0259 54.0565C92.9462 54.1702 92.8551 54.2759 92.7641 54.3817C92.7401 54.4158 92.7162 54.4499 92.6809 54.4761L92.6411 54.5329C92.542 54.65 92.435 54.7785 92.3474 54.9036C92.2916 54.9832 92.2324 55.0434 92.1766 55.123C92.1253 55.1719 92.0855 55.2288 92.0343 55.2777L91.9944 55.3345C91.9705 55.3686 91.9352 55.3948 91.9113 55.4289C91.8202 55.5346 91.7212 55.6517 91.6108 55.7609C90.5509 56.9342 89.3853 58.0164 88.1265 58.9655C87.4402 59.485 86.7357 59.9578 86.0324 60.3805C85.2745 60.8328 84.479 61.2418 83.7007 61.5781C82.8484 61.9472 81.9632 62.2425 81.1223 62.4501C80.6536 62.5624 80.1928 62.6634 79.7445 62.7223C79.2576 62.7879 78.7786 62.8422 78.3122 62.8544C76.2724 62.9339 74.2637 62.5094 72.5157 61.6403C72.2985 61.5389 72.0779 61.4182 71.8766 61.2941C71.8846 61.2827 71.8926 61.2713 71.9005 61.26L72.2934 60.6027L72.3697 60.4696C72.4666 60.2831 72.5634 60.0966 72.6636 59.9295L72.8971 59.4996L72.9495 59.4007C73.1394 59.5168 73.3179 59.625 73.5158 59.7298C73.6795 59.8107 73.8433 59.8915 74.0184 59.9804L74.0833 60.0089C74.1595 60.0453 74.2436 60.0704 74.3198 60.1068C74.4381 60.1558 74.545 60.1969 74.6633 60.2458C74.7167 60.2664 74.7702 60.2869 74.8316 60.296L74.9431 60.3063C74.9545 60.3143 74.9625 60.3029 74.9852 60.3189C75.0694 60.3439 75.1569 60.3884 75.2491 60.4021C75.3105 60.4112 75.3753 60.4397 75.4367 60.4488C75.563 60.4865 75.7086 60.5207 75.8542 60.5549C76.6436 60.7351 77.458 60.8312 78.2942 60.8238C79.8083 60.8168 81.4034 60.4765 83.0363 59.8405C83.7555 59.5646 84.4724 59.2192 85.1904 58.8238C85.8539 58.4579 86.5185 58.0419 87.165 57.5793C88.3714 56.7292 89.5073 55.7618 90.5376 54.7033C91.035 54.1872 91.5097 53.6551 91.9492 53.1491C92.0323 53.0548 92.112 52.9411 92.1951 52.8467C92.326 52.6841 92.4569 52.5215 92.5992 52.3669L93.2072 51.5721C93.9348 50.6067 94.6294 49.5674 95.2865 48.4848C95.4311 48.2301 95.5871 47.9833 95.7238 47.74C95.816 47.5842 95.8969 47.4204 95.9812 47.276C96.0256 47.1884 96.078 47.0895 96.1338 47.0099L96.3308 46.6562L96.3547 46.6221C96.4151 46.5118 96.4675 46.4129 96.5165 46.2946C96.6338 46.0546 96.7545 45.834 96.8639 45.6054C97.3663 44.55 97.7046 43.7528 97.9906 43.0545L98.2196 42.4858C98.2686 42.3675 98.3096 42.2606 98.3393 42.1458C98.3678 42.0809 98.3849 42.0081 98.4134 41.9433C98.4544 41.8364 98.4954 41.7295 98.5364 41.6226L98.6025 41.4315C98.6436 41.3246 98.6766 41.2291 98.6983 41.1255C98.7188 41.0721 98.7359 40.9993 98.7564 40.9458C98.81 40.7968 98.8522 40.6399 98.9057 40.4909C98.9593 40.3419 99.0049 40.2043 99.0425 40.078C99.1257 39.8142 99.193 39.573 99.2751 39.3592C99.3207 39.2216 99.3662 39.084 99.3959 38.9691C99.413 38.8963 99.4335 38.8429 99.454 38.7894C99.5042 38.6211 99.5498 38.4834 99.5908 38.3765C99.6342 38.1695 99.6718 38.0433 99.7139 38.0558ZM70.1493 40.5818C70.1607 40.5897 70.1641 40.6091 70.1641 40.6091C70.2664 40.6808 70.3756 40.7912 70.5075 40.9176C70.6166 41.028 70.7325 41.1771 70.8666 41.3728L71.0451 41.6505L71.1383 41.7837C71.1758 41.8269 71.194 41.8736 71.2235 41.9282C71.6496 42.6509 71.9927 43.4679 72.2299 44.3633C72.4568 45.2008 72.5973 46.1132 72.6411 47.0427C72.686 47.9221 72.6524 48.8651 72.5608 49.8184C72.538 49.9719 72.5231 50.1141 72.5003 50.2677C72.4945 50.3484 72.4774 50.4212 72.4717 50.502C72.4317 50.7284 72.3838 50.9661 72.3552 51.2004L72.2969 51.5496C72.2798 51.6224 72.2627 51.6952 72.2456 51.768C72.2331 51.8101 72.2205 51.8522 72.216 51.8829L72.0574 52.5688C72.0608 52.5881 72.0448 52.6109 72.0483 52.6302C72.0437 52.6609 72.0311 52.703 72.0266 52.7337L71.9798 52.9214L71.8795 53.2581L71.7905 53.6027C71.786 53.6334 71.77 53.6561 71.7655 53.6868C71.7404 53.771 71.7153 53.8552 71.6902 53.9393C71.6401 54.1077 71.5785 54.268 71.5363 54.425L71.4862 54.5933C71.4736 54.6354 71.4611 54.6775 71.4485 54.7196C71.4314 54.7924 71.4029 54.8572 71.3858 54.93L71.2628 55.2507C71.1887 55.4532 71.1067 55.667 71.0326 55.8694L71.028 55.9002C70.971 56.0298 70.9061 56.1708 70.8492 56.3005C70.8127 56.3767 70.7762 56.4529 70.7512 56.537L70.586 56.8452C70.5701 56.868 70.5621 56.8793 70.5541 56.8907C70.5416 56.9328 70.537 56.9635 70.5245 57.0056L70.4151 57.2342C70.1639 56.9394 69.9093 56.6252 69.674 56.3077C69.1591 55.5907 68.7148 54.8214 68.3524 54.0077C68.0048 53.2214 67.713 52.3555 67.5031 51.4453C67.3001 50.5738 67.1676 49.65 67.1124 48.7125C67.0607 47.7945 67.0749 46.8548 67.1586 45.9129C67.1643 45.8322 67.17 45.7514 67.1792 45.69C67.1907 45.5284 67.2135 45.3749 67.225 45.2133L67.2262 45.1633C67.2582 44.9483 67.2788 44.7253 67.3108 44.5104L67.369 44.1612L67.4797 43.5435L67.4969 43.4707C67.5185 43.3672 67.5402 43.2637 67.5733 43.1681C67.6827 42.7701 67.8229 42.3765 68.0165 42.0035C68.1988 41.6225 68.4186 41.2848 68.652 41.0245C68.866 40.7675 69.1289 40.5618 69.3349 40.4857C69.4282 40.4493 69.5055 40.4357 69.5943 40.4301C69.691 40.4131 69.7831 40.4268 69.8786 40.4598C69.9742 40.4929 70.0584 40.518 70.1493 40.5818Z" fill="white"/>
</svg>
