<svg width="40" height="40" viewBox="0 0 40 40" fill="none" xmlns="http://www.w3.org/2000/svg">
<g clip-path="url(#clip0_256_11707)">
<path d="M20 38.5716C30.2567 38.5716 38.5714 30.2569 38.5714 20.0001C38.5714 9.74342 30.2567 1.42871 20 1.42871C9.7433 1.42871 1.42859 9.74342 1.42859 20.0001C1.42859 30.2569 9.7433 38.5716 20 38.5716Z" stroke="#B0061F" stroke-width="1.5" stroke-linecap="round" stroke-linejoin="round"/>
<path d="M35.6571 10H24.2286C22.713 10 21.2596 10.602 20.188 11.6737C19.1163 12.7453 18.5143 14.1988 18.5143 15.7143C18.5143 17.2298 19.1163 18.6833 20.188 19.7549C21.2596 20.8265 22.713 21.4286 24.2286 21.4286C24.9863 21.4286 25.7131 21.7296 26.2489 22.2654C26.7847 22.8012 27.0857 23.528 27.0857 24.2857V37.1429" stroke="#B0061F" stroke-width="1.5" stroke-linecap="round" stroke-linejoin="round"/>
<path d="M1.65717 22.8574H8.57145C10.087 22.8574 11.5404 23.4595 12.6121 24.5311C13.6837 25.6027 14.2857 27.0562 14.2857 28.5717V37.686" stroke="#B0061F" stroke-width="1.5" stroke-linecap="round" stroke-linejoin="round"/>
</g>
<defs>
<clipPath id="clip0_256_11707">
<rect width="40" height="40" fill="white"/>
</clipPath>
</defs>
</svg>
