<svg width="25" height="25" viewBox="0 0 25 25" fill="none" xmlns="http://www.w3.org/2000/svg">
<g clip-path="url(#clip0_394_7922)">
<path d="M15.1783 8.92861C16.1645 8.92861 16.964 8.12911 16.964 7.14289C16.964 6.15667 16.1645 5.35718 15.1783 5.35718C14.1921 5.35718 13.3926 6.15667 13.3926 7.14289C13.3926 8.12911 14.1921 8.92861 15.1783 8.92861Z" stroke="white" stroke-width="1.5" stroke-linecap="round" stroke-linejoin="round"/>
<path d="M8.03544 17.857C8.52855 17.857 8.92829 17.4573 8.92829 16.9641C8.92829 16.471 8.52855 16.0713 8.03544 16.0713C7.54232 16.0713 7.14258 16.471 7.14258 16.9641C7.14258 17.4573 7.54232 17.857 8.03544 17.857Z" stroke="white" stroke-width="1.5" stroke-linecap="round" stroke-linejoin="round"/>
<path d="M8.03571 11.6071C9.02194 11.6071 9.82143 10.8076 9.82143 9.82136C9.82143 8.83514 9.02194 8.03564 8.03571 8.03564C7.04949 8.03564 6.25 8.83514 6.25 9.82136C6.25 10.8076 7.04949 11.6071 8.03571 11.6071Z" stroke="white" stroke-width="1.5" stroke-linecap="round" stroke-linejoin="round"/>
<path d="M16.9997 21.9285C16.9798 21.5822 16.8594 21.2491 16.6533 20.97C16.4471 20.6909 16.1642 20.478 15.839 20.3571C15.0313 20.0917 14.3448 19.5468 13.9029 18.8205C13.4611 18.0941 13.2928 17.234 13.4284 16.3947C13.5639 15.5554 13.9945 14.792 14.6426 14.2417C15.2907 13.6915 16.1138 13.3905 16.964 13.3928H20.3032C20.876 13.3944 21.4407 13.2582 21.9498 12.9958C22.4588 12.7333 22.8973 12.3523 23.2282 11.8849C23.5591 11.4174 23.7727 10.8772 23.8511 10.3098C23.9294 9.74248 23.8701 9.16461 23.6782 8.62497C22.968 6.61956 21.7202 4.84792 20.0713 3.50362C18.4224 2.15932 16.4357 1.29408 14.3283 1.00242C12.2209 0.710759 10.0739 1.0039 8.12182 1.84982C6.16976 2.69574 4.48773 4.0619 3.25952 5.79903C2.03131 7.53616 1.30415 9.57745 1.1575 11.6999C1.01084 13.8223 1.45034 15.9442 2.42796 17.8337C3.40558 19.7233 4.88372 21.3078 6.70089 22.4141C8.51805 23.5205 10.6043 24.1062 12.7318 24.1071C13.7825 24.11 14.8283 23.9658 15.839 23.6785C16.2101 23.5745 16.5316 23.3406 16.7447 23.0193C16.9577 22.6981 17.0482 22.311 16.9997 21.9285V21.9285Z" stroke="white" stroke-width="1.5" stroke-linecap="round" stroke-linejoin="round"/>
</g>
<defs>
<clipPath id="clip0_394_7922">
<rect width="25" height="25" fill="white"/>
</clipPath>
</defs>
</svg>
