<svg width="24" height="24" viewBox="0 0 24 24" fill="none" xmlns="http://www.w3.org/2000/svg">
<g clip-path="url(#clip0_421_98)">
<path d="M5.5714 10.286C8.17503 10.286 10.2857 8.17534 10.2857 5.57171C10.2857 2.96808 8.17503 0.857422 5.5714 0.857422C2.96777 0.857422 0.857117 2.96808 0.857117 5.57171C0.857117 8.17534 2.96777 10.286 5.5714 10.286Z" stroke="white" stroke-width="1.5" stroke-linecap="round" stroke-linejoin="round"/>
<path d="M18.4285 10.286C21.0321 10.286 23.1428 8.17534 23.1428 5.57171C23.1428 2.96808 21.0321 0.857422 18.4285 0.857422C15.8249 0.857422 13.7142 2.96808 13.7142 5.57171C13.7142 8.17534 15.8249 10.286 18.4285 10.286Z" stroke="white" stroke-width="1.5" stroke-linecap="round" stroke-linejoin="round"/>
<path d="M5.5714 23.1434C8.17503 23.1434 10.2857 21.0328 10.2857 18.4291C10.2857 15.8255 8.17503 13.7148 5.5714 13.7148C2.96777 13.7148 0.857117 15.8255 0.857117 18.4291C0.857117 21.0328 2.96777 23.1434 5.5714 23.1434Z" stroke="white" stroke-width="1.5" stroke-linecap="round" stroke-linejoin="round"/>
<path d="M18.4285 23.1434C21.0321 23.1434 23.1428 21.0328 23.1428 18.4291C23.1428 15.8255 21.0321 13.7148 18.4285 13.7148C15.8249 13.7148 13.7142 15.8255 13.7142 18.4291C13.7142 21.0328 15.8249 23.1434 18.4285 23.1434Z" stroke="white" stroke-width="1.5" stroke-linecap="round" stroke-linejoin="round"/>
</g>
<defs>
<clipPath id="clip0_421_98">
<rect width="24" height="24" fill="white"/>
</clipPath>
</defs>
</svg>
