<svg width="24" height="24" viewBox="0 0 24 24" fill="none" xmlns="http://www.w3.org/2000/svg">
<path d="M20.0176 5.85079C18.5401 2.75329 15.4951 0.795786 12.0676 0.750786C8.63255 0.705786 5.58755 2.59579 4.05755 5.70079C2.46755 8.91829 2.84255 12.6458 5.04755 15.4433L10.7401 22.6733C11.0326 23.0408 11.4676 23.2508 11.9326 23.2508C12.3976 23.2508 12.8326 23.0408 13.1251 22.6733L18.9676 15.2483C21.0901 12.5483 21.4876 8.95579 20.0176 5.85829V5.85079ZM17.7976 14.3183L11.9251 21.7433L6.23255 14.5133C4.39505 12.1808 4.08005 9.05329 5.40755 6.36829C6.68255 3.78829 9.12005 2.25829 11.9401 2.25829H12.0526C14.9476 2.30329 17.4226 3.88579 18.6676 6.50329C19.9126 9.12079 19.5901 12.0383 17.7976 14.3183Z" fill="#B0061F"/>
<path d="M11.9325 5.37109C9.67502 5.37109 7.83752 7.20859 7.83752 9.46609C7.83752 11.7236 9.67502 13.5611 11.9325 13.5611C14.19 13.5611 16.0275 11.7236 16.0275 9.46609C16.0275 7.20859 14.19 5.37109 11.9325 5.37109ZM11.9325 12.0536C10.5 12.0536 9.33752 10.8911 9.33752 9.45859C9.33752 8.02609 10.5 6.86359 11.9325 6.86359C13.365 6.86359 14.5275 8.02609 14.5275 9.45859C14.5275 10.8911 13.365 12.0536 11.9325 12.0536Z" fill="#B0061F"/>
</svg>
