<svg width="24" height="24" viewBox="0 0 24 24" fill="none" xmlns="http://www.w3.org/2000/svg">
<g clip-path="url(#clip0_256_13846)">
<path d="M15.0171 22.2858C16.0728 22.9669 17.3309 23.2637 18.5796 23.1263C19.8284 22.9889 20.9919 22.4258 21.8743 21.5315L22.6457 20.7772C22.9839 20.4313 23.1733 19.9667 23.1733 19.4829C23.1733 18.9991 22.9839 18.5346 22.6457 18.1886L19.3714 14.9486C19.0284 14.6115 18.5667 14.4226 18.0857 14.4226C17.6047 14.4226 17.143 14.6115 16.8 14.9486V14.9486C16.4541 15.2869 15.9895 15.4762 15.5057 15.4762C15.0219 15.4762 14.5574 15.2869 14.2114 14.9486L9.06856 9.80579C8.897 9.63672 8.76076 9.43523 8.66777 9.21304C8.57478 8.99084 8.52689 8.75238 8.52689 8.51151C8.52689 8.27064 8.57478 8.03217 8.66777 7.80998C8.76076 7.58778 8.897 7.38629 9.06856 7.21722V7.21722C9.40569 6.87419 9.59459 6.41247 9.59459 5.93151C9.59459 5.45055 9.40569 4.98883 9.06856 4.64579L5.81142 1.38865C5.46549 1.05045 5.00092 0.861084 4.51713 0.861084C4.03335 0.861084 3.56878 1.05045 3.22285 1.38865L2.46856 2.16008C1.5743 3.04249 1.01114 4.20591 0.87377 5.45471C0.736402 6.70351 1.03321 7.96152 1.71428 9.01722C5.26293 14.247 9.77817 18.7507 15.0171 22.2858V22.2858Z" stroke="white" stroke-width="1.5" stroke-linecap="round" stroke-linejoin="round"/>
</g>
<defs>
<clipPath id="clip0_256_13846">
<rect width="24" height="24" fill="white"/>
</clipPath>
</defs>
</svg>
