<svg width="40" height="40" viewBox="0 0 40 40" fill="none" xmlns="http://www.w3.org/2000/svg">
<path d="M19.6285 27.144C26.7293 27.144 32.4856 21.3876 32.4856 14.2868C32.4856 7.18603 26.7293 1.42969 19.6285 1.42969C12.5277 1.42969 6.77136 7.18603 6.77136 14.2868C6.77136 21.3876 12.5277 27.144 19.6285 27.144Z" stroke="#B0061F" stroke-width="1.5" stroke-linecap="round" stroke-linejoin="round"/>
<path d="M19.6286 19.9989C22.7845 19.9989 25.3429 17.4405 25.3429 14.2846C25.3429 11.1287 22.7845 8.57031 19.6286 8.57031C16.4727 8.57031 13.9143 11.1287 13.9143 14.2846C13.9143 17.4405 16.4727 19.9989 19.6286 19.9989Z" stroke="#B0061F" stroke-width="1.5" stroke-linecap="round" stroke-linejoin="round"/>
<path d="M17.1428 26.9165L14.6285 37.4879C14.5788 37.6888 14.4868 37.8768 14.3587 38.0394C14.2306 38.202 14.0694 38.3354 13.8857 38.4308C13.6918 38.5149 13.4827 38.5584 13.2714 38.5584C13.0601 38.5584 12.851 38.5149 12.6571 38.4308L3.17139 34.2879C2.97242 34.1939 2.79735 34.056 2.6593 33.8846C2.52126 33.7132 2.42384 33.5127 2.37435 33.2983C2.32486 33.0838 2.3246 32.8609 2.37357 32.6464C2.42254 32.4318 2.51948 32.2311 2.65711 32.0594L9.99996 22.8594" stroke="#B0061F" stroke-width="1.5" stroke-linecap="round" stroke-linejoin="round"/>
<path d="M22.8571 26.7735L25.4285 37.4878C25.4796 37.6921 25.5753 37.8826 25.7087 38.0456C25.842 38.2086 26.0098 38.3401 26.1999 38.4307C26.3885 38.5159 26.593 38.56 26.7999 38.56C27.0068 38.56 27.2114 38.5159 27.3999 38.4307L36.8285 34.2878C37.0304 34.1949 37.2079 34.0561 37.3468 33.8825C37.4857 33.7089 37.5821 33.5053 37.6285 33.2878C37.6826 33.0751 37.685 32.8525 37.6353 32.6388C37.5855 32.425 37.4852 32.2262 37.3428 32.0593L29.6856 22.3164" stroke="#B0061F" stroke-width="1.5" stroke-linecap="round" stroke-linejoin="round"/>
</svg>
