<svg width="24" height="24" viewBox="0 0 24 24" fill="none" xmlns="http://www.w3.org/2000/svg">
<path d="M12 5.38281V7.95424" stroke="white" stroke-width="1.5" stroke-linecap="round" stroke-linejoin="round"/>
<path d="M14.5885 12.2572C15.3971 11.6691 16.0516 10.8944 16.4963 9.99895C16.941 9.10352 17.1628 8.1139 17.1428 7.11431C17.2473 5.63698 16.7665 4.17784 15.8042 3.05202C14.842 1.92619 13.4755 1.22402 12 1.09717C10.5258 1.21976 9.15941 1.91828 8.19676 3.04137C7.23411 4.16447 6.75279 5.62165 6.85709 7.09717C6.83709 8.09675 7.05889 9.08638 7.50362 9.98181C7.94834 10.8772 8.60283 11.652 9.41138 12.24L3.90852 18.5486C3.77892 18.7053 3.70801 18.9024 3.70801 19.1057C3.70801 19.3091 3.77892 19.5061 3.90852 19.6629L6.25709 22.5772C6.33247 22.6788 6.43073 22.7612 6.5439 22.8178C6.65708 22.8744 6.78199 22.9036 6.90852 22.9029C7.03421 22.9042 7.15875 22.8789 7.27398 22.8287C7.3892 22.7784 7.4925 22.7044 7.57709 22.6115C9.24198 20.7285 10.723 18.6906 12 16.5257C13.2878 18.6921 14.7803 20.73 16.4571 22.6115C16.5417 22.7044 16.645 22.7784 16.7602 22.8287C16.8754 22.8789 17 22.9042 17.1257 22.9029C17.2522 22.9036 17.3771 22.8744 17.4903 22.8178C17.6035 22.7612 17.7017 22.6788 17.7771 22.5772L20.1257 19.6629C20.254 19.5089 20.3242 19.3148 20.3242 19.1143C20.3242 18.9139 20.254 18.7198 20.1257 18.5657L14.5885 12.2572Z" stroke="white" stroke-width="1.5" stroke-linecap="round" stroke-linejoin="round"/>
</svg>
