<svg width="30" height="30" viewBox="0 0 30 30" fill="none" xmlns="http://www.w3.org/2000/svg">
<g clip-path="url(#clip0_334_6958)">
<path d="M25.1784 21.4286C25.9201 21.4286 26.6451 21.6485 27.2618 22.0605C27.8785 22.4726 28.3592 23.0583 28.643 23.7435C28.9268 24.4287 29.0011 25.1827 28.8564 25.9101C28.7117 26.6376 28.3545 27.3058 27.8301 27.8302C27.3056 28.3547 26.6375 28.7118 25.91 28.8565C25.1826 29.0012 24.4286 28.9269 23.7434 28.6431C23.0581 28.3593 22.4725 27.8786 22.0604 27.2619C21.6484 26.6453 21.4284 25.9202 21.4284 25.1786V4.82141C21.4284 4.07973 21.6484 3.35471 22.0604 2.73802C22.4725 2.12134 23.0581 1.64069 23.7434 1.35686C24.4286 1.07304 25.1826 0.998773 25.91 1.14347C26.6375 1.28816 27.3056 1.64532 27.8301 2.16976C28.3545 2.69421 28.7117 3.3624 28.8564 4.08982C29.0011 4.81725 28.9268 5.57125 28.643 6.25648C28.3592 6.9417 27.8785 7.52737 27.2618 7.93942C26.6451 8.35148 25.9201 8.57141 25.1784 8.57141H4.82129C4.07961 8.57141 3.35459 8.35148 2.7379 7.93942C2.12122 7.52737 1.64057 6.9417 1.35674 6.25648C1.07291 5.57125 0.998651 4.81725 1.14335 4.08982C1.28804 3.3624 1.64519 2.69421 2.16964 2.16976C2.69409 1.64532 3.36227 1.28816 4.0897 1.14347C4.81713 0.998773 5.57113 1.07304 6.25635 1.35686C6.94158 1.64069 7.52725 2.12134 7.9393 2.73802C8.35136 3.35471 8.57129 4.07973 8.57129 4.82141V25.1786C8.57129 25.9202 8.35136 26.6453 7.9393 27.2619C7.52725 27.8786 6.94158 28.3593 6.25635 28.6431C5.57113 28.9269 4.81713 29.0012 4.0897 28.8565C3.36227 28.7118 2.69409 28.3547 2.16964 27.8302C1.64519 27.3058 1.28804 26.6376 1.14335 25.9101C0.998651 25.1827 1.07291 24.4287 1.35674 23.7435C1.64057 23.0583 2.12122 22.4726 2.7379 22.0605C3.35459 21.6485 4.07961 21.4286 4.82129 21.4286H25.1784Z" stroke="white" stroke-width="1.5" stroke-linecap="round" stroke-linejoin="round"/>
</g>
<defs>
<clipPath id="clip0_334_6958">
<rect width="30" height="30" fill="white"/>
</clipPath>
</defs>
</svg>
