<svg width="24" height="24" viewBox="0 0 24 24" fill="none" xmlns="http://www.w3.org/2000/svg">
<path d="M9.42858 16.2879L5.14286 6.85938L0.857147 16.2879C0.857147 17.4246 1.30868 18.5147 2.1124 19.3184C2.91613 20.1221 4.00622 20.5737 5.14286 20.5737C6.2795 20.5737 7.36959 20.1221 8.17332 19.3184C8.97705 18.5147 9.42858 17.4246 9.42858 16.2879Z" stroke="white" stroke-width="1.5" stroke-linecap="round" stroke-linejoin="round"/>
<path d="M23.1429 16.2879L18.8572 6.85938L14.5714 16.2879C14.5714 17.4246 15.023 18.5147 15.8267 19.3184C16.6304 20.1221 17.7205 20.5737 18.8572 20.5737C19.9938 20.5737 21.0839 20.1221 21.8876 19.3184C22.6913 18.5147 23.1429 17.4246 23.1429 16.2879Z" stroke="white" stroke-width="1.5" stroke-linecap="round" stroke-linejoin="round"/>
<path d="M2.57144 6.85938H21.4286" stroke="white" stroke-width="1.5" stroke-linecap="round" stroke-linejoin="round"/>
<path d="M12 6.85826V3.42969" stroke="white" stroke-width="1.5" stroke-linecap="round" stroke-linejoin="round"/>
</svg>
