<svg width="24" height="24" viewBox="0 0 24 24" fill="none" xmlns="http://www.w3.org/2000/svg">
<g clip-path="url(#clip0_485_250)">
<path d="M23.1429 18C23.1429 20.8457 18.1543 23.1429 12 23.1429C5.84575 23.1429 0.857178 20.8457 0.857178 18" stroke="white" stroke-width="1.5" stroke-linecap="round" stroke-linejoin="round"/>
<path d="M16.2858 9.4269C16.2858 11.7926 12.8572 15.4269 12.0001 15.4269C11.1429 15.4269 7.71436 11.7926 7.71436 9.4269C7.71436 5.99833 12.0001 0.855469 12.0001 0.855469C12.0001 0.855469 16.2858 5.99833 16.2858 9.4269Z" stroke="white" stroke-width="1.5" stroke-linecap="round" stroke-linejoin="round"/>
<path d="M8.36578 6.66634C6.22236 5.87761 3.98725 5.36492 1.71436 5.14063C1.71436 5.14063 2.31436 11.8092 4.74864 14.2263C6.46293 15.9406 11.4172 16.0435 12.0172 15.4435" stroke="white" stroke-width="1.5" stroke-linecap="round" stroke-linejoin="round"/>
<path d="M15.6343 6.66634C17.7778 5.87761 20.0129 5.36492 22.2858 5.14063C22.2858 5.14063 21.6858 11.8092 19.2515 14.2263C17.5372 15.9406 12.5829 16.0435 11.9829 15.4435" stroke="white" stroke-width="1.5" stroke-linecap="round" stroke-linejoin="round"/>
</g>
<defs>
<clipPath id="clip0_485_250">
<rect width="24" height="24" fill="white"/>
</clipPath>
</defs>
</svg>
