<svg width="16" height="16" viewBox="0 0 16 16" fill="none" xmlns="http://www.w3.org/2000/svg">
<g clip-path="url(#clip0_256_13879)">
<path d="M11.7812 7.5625C9.45496 7.5625 7.5625 9.45496 7.5625 11.7812C7.5625 14.1075 9.45496 16 11.7812 16C14.1075 16 16 14.1075 16 11.7812C16 9.45496 14.1075 7.5625 11.7812 7.5625ZM13.6562 12.25H11.7812C11.5222 12.25 11.3125 12.0403 11.3125 11.7812V9.90625C11.3125 9.64722 11.5222 9.4375 11.7812 9.4375C12.0403 9.4375 12.25 9.64722 12.25 9.90625V11.3125H13.6562C13.9153 11.3125 14.125 11.5222 14.125 11.7812C14.125 12.0403 13.9153 12.25 13.6562 12.25Z" fill="#B0061F"/>
<path d="M15.0313 1.4375C15.0313 1.17493 14.8251 0.96875 14.5625 0.96875H12.2188V2.375C12.2188 2.63745 12.0126 2.84375 11.75 2.84375C11.4874 2.84375 11.2813 2.63745 11.2813 2.375V0.96875H9.40625V2.375C9.40625 2.63745 9.20007 2.84375 8.9375 2.84375C8.67493 2.84375 8.46875 2.63745 8.46875 2.375V0.96875H6.59375V2.375C6.59375 2.63745 6.38757 2.84375 6.125 2.84375C5.86243 2.84375 5.65625 2.63745 5.65625 2.375V0.96875H3.78125V2.375C3.78125 2.63745 3.57507 2.84375 3.3125 2.84375C3.04993 2.84375 2.84375 2.63745 2.84375 2.375V0.96875H0.46875C0.206177 0.96875 0 1.17493 0 1.4375V3.78125H15.0313V1.4375Z" fill="#B0061F"/>
<path d="M7.0625 9.40625H7.17505C7.34619 9.07373 7.53931 8.75452 7.77564 8.46875H7.0625C6.80347 8.46875 6.59375 8.25903 6.59375 8C6.59375 7.74097 6.80347 7.53125 7.0625 7.53125H8C8.19202 7.53125 8.35596 7.64709 8.42847 7.81226C9.32654 7.05359 10.485 6.59375 11.75 6.59375H10.8125C10.5535 6.59375 10.3438 6.38403 10.3438 6.125C10.3438 5.86597 10.5535 5.65625 10.8125 5.65625H11.75C12.009 5.65625 12.2188 5.86597 12.2188 6.125C12.2188 6.38403 12.009 6.59375 11.75 6.59375C12.9955 6.59375 14.1392 7.03784 15.0313 7.77563V4.71875H0V13.625C0 13.884 0.209717 14.0938 0.46875 14.0938H7.16296C6.80176 13.3896 6.59375 12.5942 6.59375 11.75C6.59375 11.234 6.68628 10.7423 6.828 10.272C6.69043 10.1903 6.59375 10.0468 6.59375 9.875C6.59375 9.61597 6.80347 9.40625 7.0625 9.40625ZM7.0625 5.65625H8C8.25903 5.65625 8.46875 5.86597 8.46875 6.125C8.46875 6.38403 8.25903 6.59375 8 6.59375H7.0625C6.80347 6.59375 6.59375 6.38403 6.59375 6.125C6.59375 5.86597 6.80347 5.65625 7.0625 5.65625ZM4.25 12.2188H3.3125C3.05347 12.2188 2.84375 12.009 2.84375 11.75C2.84375 11.491 3.05347 11.2812 3.3125 11.2812H4.25C4.50903 11.2812 4.71875 11.491 4.71875 11.75C4.71875 12.009 4.50903 12.2188 4.25 12.2188ZM4.25 10.3438H3.3125C3.05347 10.3438 2.84375 10.134 2.84375 9.875C2.84375 9.61597 3.05347 9.40625 3.3125 9.40625H4.25C4.50903 9.40625 4.71875 9.61597 4.71875 9.875C4.71875 10.134 4.50903 10.3438 4.25 10.3438ZM4.25 8.46875H3.3125C3.05347 8.46875 2.84375 8.25903 2.84375 8C2.84375 7.74097 3.05347 7.53125 3.3125 7.53125H4.25C4.50903 7.53125 4.71875 7.74097 4.71875 8C4.71875 8.25903 4.50903 8.46875 4.25 8.46875ZM4.25 6.59375H3.3125C3.05347 6.59375 2.84375 6.38403 2.84375 6.125C2.84375 5.86597 3.05347 5.65625 3.3125 5.65625H4.25C4.50903 5.65625 4.71875 5.86597 4.71875 6.125C4.71875 6.38403 4.50903 6.59375 4.25 6.59375Z" fill="#B0061F"/>
<path d="M3.78125 0.46875C3.78125 0.206177 3.57507 0 3.3125 0C3.04993 0 2.84375 0.206177 2.84375 0.46875V0.96875H3.78125V0.46875Z" fill="#B0061F"/>
<path d="M6.59375 0.46875C6.59375 0.206177 6.38757 0 6.125 0C5.86243 0 5.65625 0.206177 5.65625 0.46875V0.96875H6.59375V0.46875Z" fill="#B0061F"/>
<path d="M9.40625 0.46875C9.40625 0.206177 9.20007 0 8.9375 0C8.67493 0 8.46875 0.206177 8.46875 0.46875V0.96875H9.40625V0.46875Z" fill="#B0061F"/>
<path d="M12.2188 0.46875C12.2188 0.206177 12.0126 0 11.75 0C11.4874 0 11.2812 0.206177 11.2812 0.46875V0.96875H12.2188V0.46875Z" fill="#B0061F"/>
</g>
<defs>
<clipPath id="clip0_256_13879">
<rect width="16" height="16" fill="white"/>
</clipPath>
</defs>
</svg>
