<svg width="80" height="80" viewBox="0 0 80 80" fill="none" xmlns="http://www.w3.org/2000/svg">
<path d="M37.3844 0.5H42.6159C43.6344 0.50021 44.4595 1.3249 44.4596 2.34082V19.167H63.6364C64.6549 19.1671 65.4799 19.992 65.4801 21.0078V26.2334C65.4799 27.2492 64.6549 28.0741 63.6364 28.0742H44.4596V77.6592C44.4595 78.6751 43.6344 79.4998 42.6159 79.5H37.3844C36.3657 79.4999 35.5407 78.6752 35.5407 77.6592V28.0742H16.3639C15.3453 28.0742 14.5204 27.2493 14.5202 26.2334V21.0078C14.5204 19.9919 15.3453 19.167 16.3639 19.167H35.5407V2.34082C35.5407 1.32481 36.3657 0.500064 37.3844 0.5Z" stroke="#010101"/>
</svg>
