<svg width="20" height="20" viewBox="0 0 20 20" fill="none" xmlns="http://www.w3.org/2000/svg">
<g clip-path="url(#clip0_174_7957)">
<path d="M15.7143 7.85742H4.28575C3.49677 7.85742 2.85718 8.49702 2.85718 9.28599V17.8574C2.85718 18.6464 3.49677 19.286 4.28575 19.286H15.7143C16.5033 19.286 17.1429 18.6464 17.1429 17.8574V9.28599C17.1429 8.49702 16.5033 7.85742 15.7143 7.85742Z" stroke="#010101" stroke-width="1.5" stroke-linecap="round" stroke-linejoin="round"/>
<path d="M15 7.8577V5.71484C15 4.38876 14.4732 3.11699 13.5355 2.17931C12.5979 1.24163 11.3261 0.714844 10 0.714844C8.67392 0.714844 7.40215 1.24163 6.46447 2.17931C5.52678 3.11699 5 4.38876 5 5.71484V7.8577" stroke="#010101" stroke-width="1.5" stroke-linecap="round" stroke-linejoin="round"/>
<path d="M10.0001 14.286C10.3945 14.286 10.7143 13.9662 10.7143 13.5717C10.7143 13.1772 10.3945 12.8574 10.0001 12.8574C9.60556 12.8574 9.28577 13.1772 9.28577 13.5717C9.28577 13.9662 9.60556 14.286 10.0001 14.286Z" stroke="#010101" stroke-width="1.5" stroke-linecap="round" stroke-linejoin="round"/>
</g>
<defs>
<clipPath id="clip0_174_7957">
<rect width="20" height="20" fill="white"/>
</clipPath>
</defs>
</svg>
