<svg width="25" height="25" viewBox="0 0 25 25" fill="none" xmlns="http://www.w3.org/2000/svg">
<g clip-path="url(#clip0_394_7934)">
<path d="M15.1787 16.9642C15.6523 16.9642 16.1065 16.776 16.4414 16.4412C16.7763 16.1063 16.9644 15.6521 16.9644 15.1785" stroke="white" stroke-width="1.5" stroke-linecap="round" stroke-linejoin="round"/>
<path d="M8.03516 16.9644H10.7137" stroke="white" stroke-width="1.5" stroke-linecap="round" stroke-linejoin="round"/>
<path d="M16.9639 8.03564V10.7142" stroke="white" stroke-width="1.5" stroke-linecap="round" stroke-linejoin="round"/>
<path d="M9.82087 8.03564C9.34727 8.03564 8.89307 8.22378 8.55818 8.55867C8.22329 8.89355 8.03516 9.34776 8.03516 9.82136" stroke="white" stroke-width="1.5" stroke-linecap="round" stroke-linejoin="round"/>
<path d="M0.892578 2.67854C0.892578 2.20494 1.08072 1.75073 1.4156 1.41585C1.75049 1.08096 2.20469 0.892822 2.67829 0.892822H15.1783C15.6519 0.892822 16.1061 1.08096 16.441 1.41585C16.7759 1.75073 16.964 2.20494 16.964 2.67854V8.03568H22.3211C22.7948 8.03568 23.249 8.22382 23.5838 8.5587C23.9187 8.89359 24.1069 9.34779 24.1069 9.82139V22.3214C24.1069 22.795 23.9187 23.2492 23.5838 23.5841C23.249 23.919 22.7948 24.1071 22.3211 24.1071H9.82115C9.34755 24.1071 8.89335 23.919 8.55846 23.5841C8.22357 23.2492 8.03544 22.795 8.03544 22.3214V16.9643H2.67829C2.20469 16.9643 1.75049 16.7761 1.4156 16.4412C1.08072 16.1063 0.892578 15.6521 0.892578 15.1785V2.67854Z" stroke="white" stroke-width="1.5" stroke-linecap="round" stroke-linejoin="round"/>
<path d="M14.2852 8.03564H16.9637" stroke="white" stroke-width="1.5" stroke-linecap="round" stroke-linejoin="round"/>
<path d="M8.03516 14.2856V16.9642" stroke="white" stroke-width="1.5" stroke-linecap="round" stroke-linejoin="round"/>
</g>
<defs>
<clipPath id="clip0_394_7934">
<rect width="25" height="25" fill="white"/>
</clipPath>
</defs>
</svg>
