<svg width="40" height="40" viewBox="0 0 40 40" fill="none" xmlns="http://www.w3.org/2000/svg">
<path d="M19.6285 27.143C26.7293 27.143 32.4856 21.3867 32.4856 14.2859C32.4856 7.18505 26.7293 1.42871 19.6285 1.42871C12.5277 1.42871 6.77136 7.18505 6.77136 14.2859C6.77136 21.3867 12.5277 27.143 19.6285 27.143Z" stroke="#B0061F" stroke-width="1.5" stroke-linecap="round" stroke-linejoin="round"/>
<path d="M19.6286 19.9999C22.7845 19.9999 25.3429 17.4415 25.3429 14.2856C25.3429 11.1297 22.7845 8.57129 19.6286 8.57129C16.4727 8.57129 13.9143 11.1297 13.9143 14.2856C13.9143 17.4415 16.4727 19.9999 19.6286 19.9999Z" stroke="#B0061F" stroke-width="1.5" stroke-linecap="round" stroke-linejoin="round"/>
<path d="M17.1428 26.9146L14.6285 37.486C14.5788 37.6869 14.4868 37.8749 14.3587 38.0375C14.2306 38.2 14.0694 38.3335 13.8857 38.4289C13.6918 38.513 13.4827 38.5564 13.2714 38.5564C13.0601 38.5564 12.851 38.513 12.6571 38.4289L3.17139 34.286C2.97242 34.1919 2.79735 34.054 2.6593 33.8826C2.52126 33.7112 2.42384 33.5107 2.37435 33.2963C2.32486 33.0819 2.3246 32.859 2.37357 32.6444C2.42254 32.4298 2.51948 32.2292 2.65711 32.0574L9.99996 22.8574" stroke="#B0061F" stroke-width="1.5" stroke-linecap="round" stroke-linejoin="round"/>
<path d="M22.8571 26.7716L25.4285 37.4859C25.4796 37.6902 25.5753 37.8807 25.7087 38.0437C25.842 38.2067 26.0098 38.3382 26.1999 38.4287C26.3885 38.5139 26.593 38.558 26.7999 38.558C27.0068 38.558 27.2114 38.5139 27.3999 38.4287L36.8285 34.2859C37.0304 34.1929 37.2079 34.0541 37.3468 33.8805C37.4857 33.7069 37.5821 33.5033 37.6285 33.2859C37.6826 33.0732 37.685 32.8506 37.6353 32.6368C37.5855 32.423 37.4852 32.2243 37.3428 32.0573L29.6856 22.3145" stroke="#B0061F" stroke-width="1.5" stroke-linecap="round" stroke-linejoin="round"/>
</svg>
