<svg width="20" height="20" viewBox="0 0 20 20" fill="none" xmlns="http://www.w3.org/2000/svg">
<g clip-path="url(#clip0_294_330)">
<path d="M16.7857 14.2863C17.2802 14.2863 17.7635 14.4329 18.1747 14.7076C18.5858 14.9823 18.9062 15.3728 19.0954 15.8296C19.2846 16.2864 19.3342 16.789 19.2377 17.274C19.1412 17.759 18.9031 18.2044 18.5535 18.554C18.2039 18.9037 17.7584 19.1418 17.2735 19.2382C16.7885 19.3347 16.2858 19.2852 15.829 19.096C15.3722 18.9068 14.9818 18.5863 14.7071 18.1752C14.4323 17.7641 14.2857 17.2807 14.2857 16.7863V3.21484C14.2857 2.72039 14.4323 2.23704 14.7071 1.82592C14.9818 1.4148 15.3722 1.09437 15.829 0.905146C16.2858 0.715927 16.7885 0.666419 17.2735 0.762882C17.7584 0.859345 18.2039 1.09745 18.5535 1.44708C18.9031 1.79671 19.1412 2.24217 19.2377 2.72712C19.3342 3.21207 19.2846 3.71474 19.0954 4.17155C18.9062 4.62837 18.5858 5.01882 18.1747 5.29352C17.7635 5.56822 17.2802 5.71484 16.7857 5.71484H3.2143C2.71984 5.71484 2.23649 5.56822 1.82537 5.29352C1.41425 5.01882 1.09382 4.62837 0.904597 4.17155C0.715378 3.71474 0.665869 3.21207 0.762332 2.72712C0.858795 2.24217 1.0969 1.79671 1.44653 1.44708C1.79616 1.09745 2.24162 0.859345 2.72657 0.762882C3.21152 0.666419 3.71419 0.715927 4.171 0.905146C4.62782 1.09437 5.01827 1.4148 5.29297 1.82592C5.56767 2.23704 5.7143 2.72039 5.7143 3.21484V16.7863C5.7143 17.2807 5.56767 17.7641 5.29297 18.1752C5.01827 18.5863 4.62782 18.9068 4.171 19.096C3.71419 19.2852 3.21152 19.3347 2.72657 19.2382C2.24162 19.1418 1.79616 18.9037 1.44653 18.554C1.0969 18.2044 0.858795 17.759 0.762332 17.274C0.665869 16.789 0.715378 16.2864 0.904597 15.8296C1.09382 15.3728 1.41425 14.9823 1.82537 14.7076C2.23649 14.4329 2.71984 14.2863 3.2143 14.2863H16.7857Z" stroke="white" stroke-width="1.5" stroke-linecap="round" stroke-linejoin="round"/>
</g>
<defs>
<clipPath id="clip0_294_330">
<rect width="20" height="20" fill="white"/>
</clipPath>
</defs>
</svg>
