<svg width="24" height="24" viewBox="0 0 24 24" fill="none" xmlns="http://www.w3.org/2000/svg">
<g clip-path="url(#clip0_485_257)">
<path d="M20.1428 17.1431C20.7362 17.1431 21.3162 17.3191 21.8095 17.6487C22.3029 17.9784 22.6874 18.4469 22.9145 18.9951C23.1415 19.5433 23.2009 20.1465 23.0852 20.7284C22.9694 21.3104 22.6837 21.8449 22.2642 22.2645C21.8446 22.684 21.31 22.9697 20.7281 23.0855C20.1462 23.2012 19.543 23.1418 18.9948 22.9148C18.4466 22.6877 17.9781 22.3032 17.6484 21.8098C17.3188 21.3165 17.1428 20.7365 17.1428 20.1431V3.85742C17.1428 3.26408 17.3188 2.68406 17.6484 2.19071C17.9781 1.69736 18.4466 1.31285 18.9948 1.08578C19.543 0.858722 20.1462 0.799312 20.7281 0.915067C21.31 1.03082 21.8446 1.31655 22.2642 1.7361C22.6837 2.15566 22.9694 2.69021 23.0852 3.27215C23.2009 3.8541 23.1415 4.4573 22.9145 5.00547C22.6874 5.55365 22.3029 6.02219 21.8095 6.35183C21.3162 6.68148 20.7362 6.85742 20.1428 6.85742H3.85712C3.26377 6.85742 2.68375 6.68148 2.19041 6.35183C1.69706 6.02219 1.31254 5.55365 1.08548 5.00547C0.858417 4.4573 0.799007 3.8541 0.914762 3.27215C1.03052 2.69021 1.31624 2.15566 1.7358 1.7361C2.15536 1.31655 2.6899 1.03082 3.27185 0.915067C3.85379 0.799312 4.45699 0.858722 5.00517 1.08578C5.55335 1.31285 6.02188 1.69736 6.35153 2.19071C6.68117 2.68406 6.85712 3.26408 6.85712 3.85742V20.1431C6.85712 20.7365 6.68117 21.3165 6.35153 21.8098C6.02188 22.3032 5.55335 22.6877 5.00517 22.9148C4.45699 23.1418 3.85379 23.2012 3.27185 23.0855C2.6899 22.9697 2.15536 22.684 1.7358 22.2645C1.31624 21.8449 1.03052 21.3104 0.914762 20.7284C0.799007 20.1465 0.858417 19.5433 1.08548 18.9951C1.31254 18.4469 1.69706 17.9784 2.19041 17.6487C2.68375 17.3191 3.26377 17.1431 3.85712 17.1431H20.1428Z" stroke="white" stroke-width="1.5" stroke-linecap="round" stroke-linejoin="round"/>
</g>
<defs>
<clipPath id="clip0_485_257">
<rect width="24" height="24" fill="white"/>
</clipPath>
</defs>
</svg>
