<svg width="151" height="50" viewBox="0 0 151 50" fill="none" xmlns="http://www.w3.org/2000/svg">
<path d="M77.424 15.4V18.984H71.292V23.772C71.8707 23.548 72.4773 23.3707 73.112 23.24C73.7653 23.1093 74.4093 23.0253 75.044 22.988C75.6787 22.9507 76.2667 22.9693 76.808 23.044V26.488L76.556 26.656C76.1267 26.5253 75.6227 26.4507 75.044 26.432C74.484 26.4133 73.8773 26.4507 73.224 26.544C72.5707 26.6373 71.9267 26.796 71.292 27.02V31.416H77.424V35H67.372V15.4H77.424ZM79.54 35V15.4H85.588L88.164 27.832H88.36L90.908 15.4H96.928V35H93.12L93.232 20.692H92.924L89.76 35H86.736L83.544 20.692H83.236L83.376 35H79.54ZM98.5717 35V34.356L102.66 15.4L109.632 15.428L113.748 34.356V35H109.66L108.764 30.072H103.556L102.632 35H98.5717ZM104.088 26.628H108.204L106.832 19.124H105.46L104.088 26.628ZM124.574 15.4H128.41V35H124.126L119.282 22.848H118.974L119.142 35H115.306V15.4H119.59L124.434 27.72H124.742L124.574 15.4ZM144.464 28.196C144.464 29.5213 144.268 30.6413 143.876 31.556C143.484 32.4707 142.952 33.208 142.28 33.768C141.627 34.3093 140.899 34.7013 140.096 34.944C139.312 35.1867 138.528 35.308 137.744 35.308C136.96 35.308 136.167 35.1867 135.364 34.944C134.58 34.7013 133.852 34.3093 133.18 33.768C132.527 33.208 132.004 32.4707 131.612 31.556C131.22 30.6413 131.024 29.5213 131.024 28.196V15.4H134.972V27.692C134.972 28.42 135.075 29.064 135.28 29.624C135.486 30.1653 135.794 30.5947 136.204 30.912C136.615 31.2107 137.128 31.36 137.744 31.36C138.36 31.36 138.874 31.2107 139.284 30.912C139.695 30.5947 140.003 30.1653 140.208 29.624C140.414 29.064 140.516 28.42 140.516 27.692V15.4H144.464V28.196Z" fill="white"/>
<path d="M150.013 33.04C150.013 33.712 149.799 34.2627 149.369 34.692C148.94 35.1213 148.399 35.336 147.745 35.336C147.092 35.336 146.541 35.1213 146.093 34.692C145.664 34.244 145.449 33.6933 145.449 33.04C145.449 32.4427 145.664 31.92 146.093 31.472C146.541 31.0053 147.092 30.772 147.745 30.772C148.399 30.772 148.94 31.0053 149.369 31.472C149.799 31.92 150.013 32.4427 150.013 33.04Z" fill="#B0061F"/>
<rect width="50" height="50" rx="25" fill="#B0061F"/>
<mask id="mask0_651_2" style="mask-type:alpha" maskUnits="userSpaceOnUse" x="0" y="0" width="50" height="50">
<rect width="50" height="50" rx="25" fill="#AC2F15"/>
</mask>
<g mask="url(#mask0_651_2)">
<path fill-rule="evenodd" clip-rule="evenodd" d="M38.7467 30.6951L24.807 25.915L11 30.6951V50.7873H38.7467V30.6951Z" fill="white"/>
<path fill-rule="evenodd" clip-rule="evenodd" d="M28.305 41.7481C28.305 39.9312 26.8302 38.4561 25.0133 38.4561C23.1967 38.4561 21.7213 39.9309 21.7213 41.7481V51.6453C21.7213 53.4619 23.1964 54.9368 25.0133 54.9368C26.8302 54.9368 28.305 53.4619 28.305 51.6453V41.7481Z" fill="#B0061F"/>
<path fill-rule="evenodd" clip-rule="evenodd" d="M24.8571 12.1953L18.1857 15.7766L18.2446 27.2378L24.8055 25.2782L31.4731 27.1355L31.481 15.7669L24.8571 12.1953Z" fill="white"/>
<path fill-rule="evenodd" clip-rule="evenodd" d="M22.9576 6.95057H24.3305L24.3319 5.0625H25.3444L25.3394 6.95057H26.7185V7.96303H25.3365L25.3265 11.6205L24.8345 11.3509L24.327 11.6193L24.3299 7.96303H22.9576V6.95057Z" fill="white"/>
<path fill-rule="evenodd" clip-rule="evenodd" d="M14.3173 37.8792V35.4256C14.3173 34.5608 15.0197 33.8584 15.8845 33.8584C16.7492 33.8584 17.4516 34.5608 17.4516 35.4256V37.8792H14.3173Z" fill="#B0061F"/>
<path fill-rule="evenodd" clip-rule="evenodd" d="M23.3057 21.2491V18.7957C23.3057 17.9309 24.0079 17.2285 24.8729 17.2285C25.7377 17.2285 26.4401 17.9309 26.4401 18.7957V21.2491H23.3057Z" fill="#B0061F"/>
<path fill-rule="evenodd" clip-rule="evenodd" d="M32.4568 37.8792V35.4256C32.4568 34.5608 33.159 33.8584 34.024 33.8584C34.8888 33.8584 35.5912 34.5608 35.5912 35.4256V37.8792H32.4568Z" fill="#B0061F"/>
</g>
</svg>
